<svg width="98" height="99" viewBox="0 0 98 99" fill="none" xmlns="http://www.w3.org/2000/svg">
<line x1="11.0698" y1="47.293" x2="78.6796" y2="47.293" stroke="black" stroke-width="2"/>
<mask id="path-2-inside-1" fill="white">
<rect x="2" y="7.03662" width="22.6829" height="22.6829" rx="1"/>
</mask>
<rect x="2" y="7.03662" width="22.6829" height="22.6829" rx="1" fill="#F6F0E1" stroke="black" stroke-width="4" mask="url(#path-2-inside-1)"/>
<mask id="path-3-inside-2" fill="white">
<rect x="0.207031" y="4.82922" width="22.6829" height="22.6829" rx="1"/>
</mask>
<rect x="0.207031" y="4.82922" width="22.6829" height="22.6829" rx="1" fill="white" stroke="black" stroke-width="4" mask="url(#path-3-inside-2)"/>
<mask id="path-4-inside-3" fill="white">
<rect x="2" y="38.4268" width="22.6829" height="22.6829" rx="1"/>
</mask>
<rect x="2" y="38.4268" width="22.6829" height="22.6829" rx="1" fill="#F6F0E1" stroke="black" stroke-width="4" mask="url(#path-4-inside-3)"/>
<mask id="path-5-inside-4" fill="white">
<rect x="0.207031" y="36.2196" width="22.6829" height="22.6829" rx="1"/>
</mask>
<rect x="0.207031" y="36.2196" width="22.6829" height="22.6829" rx="1" fill="white" stroke="black" stroke-width="4" mask="url(#path-5-inside-4)"/>
<mask id="path-6-inside-5" fill="white">
<rect x="2" y="69.817" width="22.6829" height="22.6829" rx="1"/>
</mask>
<rect x="2" y="69.817" width="22.6829" height="22.6829" rx="1" fill="#F6F0E1" stroke="black" stroke-width="4" mask="url(#path-6-inside-5)"/>
<mask id="path-7-inside-6" fill="white">
<rect x="0.207031" y="67.6097" width="22.6829" height="22.6829" rx="1"/>
</mask>
<rect x="0.207031" y="67.6097" width="22.6829" height="22.6829" rx="1" fill="white" stroke="black" stroke-width="4" mask="url(#path-7-inside-6)"/>
<line x1="80.8882" y1="14.4873" x2="80.8882" y2="83.3044" stroke="black" stroke-width="2"/>
<path d="M96 19.3171L73.6463 32.223L73.6463 6.41122L96 19.3171Z" fill="black" stroke="black" stroke-width="2"/>
<path d="M94.7925 16.9024L72.4388 29.8083L72.4388 3.99655L94.7925 16.9024Z" fill="white" stroke="black" stroke-width="2"/>
<path d="M96 82.0976L73.6463 69.1917L73.6463 95.0035L96 82.0976Z" fill="black" stroke="black" stroke-width="2"/>
<path d="M94.7925 79.6829L72.4388 66.777L72.4388 92.5888L94.7925 79.6829Z" fill="white" stroke="black" stroke-width="2"/>
<circle cx="81.7007" cy="50.1036" r="9.2622" fill="white" stroke="black" stroke-width="2"/>
<path d="M57.1707 46.3523C57.9166 46.7183 57.9166 47.7817 57.1707 48.1477L37.9406 57.5849C37.2761 57.9109 36.5 57.4273 36.5 56.6871L36.5 37.8129C36.5 37.0727 37.2761 36.5891 37.9406 36.9151L57.1707 46.3523Z" fill="black"/>
<path d="M94.7925 79.6829L72.4388 66.777L72.4388 92.5888L94.7925 79.6829Z" fill="white" stroke="black" stroke-width="2"/>
</svg>
