<svg width="112" height="113" viewBox="0 0 112 113" fill="none" xmlns="http://www.w3.org/2000/svg">
<path fill-rule="evenodd" clip-rule="evenodd" d="M17.2466 9.99445C16.6943 9.99445 16.2466 10.4422 16.2466 10.9944V69.4791H13.107C12.5547 69.4791 12.107 69.9268 12.107 70.4791V90.6148C12.107 90.8731 9.6666 94.0357 7.12476 97.3298C4.23115 101.08 1.20605 105 1.50007 105L1.50006 110.5L83.5001 109.5L91.5296 98.7693C93.3881 96.5536 97.8831 90.9134 97.8831 90.6148V70.4791C97.8831 69.9268 97.4354 69.4791 96.8831 69.4791H95.1053V10.9944C95.1053 10.4422 94.6576 9.99445 94.1053 9.99445H17.2466Z" fill="white"/>
<path fill-rule="evenodd" clip-rule="evenodd" d="M30.066 0.5C29.9593 0.5 29.8553 0.534156 29.7694 0.597472L16.9597 10.0362C16.5472 10.1595 16.2466 10.5419 16.2466 10.9944V69.4791H13.1069C12.5546 69.4791 12.1069 69.9268 12.1069 70.4791V90.6148C12.1069 90.7268 12.1253 90.8345 12.1593 90.935L0.634008 103.037C0.368377 103.315 0.220215 103.686 0.220215 104.071V110.297C0.220215 111.125 0.891788 111.797 1.72021 111.797H79.3856C79.4017 111.863 79.4315 111.927 79.4741 111.982C79.5687 112.106 79.7157 112.179 79.8715 112.179H85.4054C85.5201 112.179 85.6313 112.139 85.7203 112.067L110.945 91.6151C111.296 91.3303 111.5 90.9022 111.5 90.45V65.6403C111.5 64.8119 110.828 64.1403 110 64.1403H105.966V4C105.966 2.067 104.399 0.5 102.466 0.5H30.066ZM92.5146 72.4791V88.0444H15.5551C15.4016 88.0444 15.2506 88.068 15.1069 88.1129V72.4791H92.5146ZM15.6547 91.6148L3.22021 104.671V108.797H80.1393L80.4624 107.612V104.471C80.4624 103.829 80.7093 103.212 81.152 102.747L87.0216 96.5838L90.8075 91.6148H15.6547ZM23.171 79.5531C22.6187 79.5531 22.171 80.0008 22.171 80.5531C22.171 81.1054 22.6187 81.5531 23.171 81.5531H34.2389C34.7912 81.5531 35.2389 81.1054 35.2389 80.5531C35.2389 80.0008 34.7912 79.5531 34.2389 79.5531H23.171ZM68.1317 79.5531C67.5794 79.5531 67.1317 80.0008 67.1317 80.5531C67.1317 81.1054 67.5794 81.5531 68.1317 81.5531H86.8088C87.3611 81.5531 87.8088 81.1054 87.8088 80.5531C87.8088 80.0008 87.3611 79.5531 86.8088 79.5531H68.1317ZM84.8203 20.2921H26.5634V63.3306H27.6666V20.9581H84.8203V20.2921ZM84.8203 63.3306H29.6666V22.9581H84.8203V63.3306ZM26.5634 18.2921C25.4588 18.2921 24.5634 19.1875 24.5634 20.2921V63.3306C24.5634 64.4352 25.4588 65.3306 26.5634 65.3306H84.8203C85.9248 65.3306 86.8203 64.4352 86.8203 63.3306V20.2921C86.8203 19.1875 85.9248 18.2921 84.8203 18.2921H26.5634ZM19.2466 12.9944V69.4791H92.1053V12.9944H19.2466Z" fill="black"/>
</svg>
