<svg width="132" height="102" viewBox="0 0 132 102" fill="none" xmlns="http://www.w3.org/2000/svg">
<path d="M77.2258 4.52829L3.0188 96.8462L7.41207 99.3587C7.71442 99.5317 8.05668 99.6226 8.40499 99.6226H77.9999C79.1045 99.6226 79.9999 98.7272 79.9999 97.6226V9.91786C79.9999 9.57005 79.9092 9.22826 79.7368 8.92622L77.2258 4.52829Z" fill="black"/>
<path d="M3.0188 96.8462L1.84968 95.9064C1.57468 96.2485 1.46333 96.6939 1.54498 97.1252C1.62663 97.5565 1.89309 97.9303 2.27411 98.1482L3.0188 96.8462ZM77.2258 4.52829L78.5285 3.78456C78.2824 3.3536 77.8391 3.07222 77.3444 3.03299C76.8497 2.99375 76.3676 3.20173 76.0567 3.58853L77.2258 4.52829ZM79.7368 8.92622L78.4341 9.66995L79.7368 8.92622ZM7.41207 99.3587L8.15676 98.0567H8.15676L7.41207 99.3587ZM4.18792 97.7859L78.395 5.46805L76.0567 3.58853L1.84968 95.9064L4.18792 97.7859ZM75.9232 5.27202L78.4341 9.66995L81.0394 8.18249L78.5285 3.78456L75.9232 5.27202ZM78.4999 9.91786V97.6226H81.4999V9.91786H78.4999ZM77.9999 98.1226H8.40499V101.123H77.9999V98.1226ZM8.15676 98.0567L3.76349 95.5441L2.27411 98.1482L6.66738 100.661L8.15676 98.0567ZM8.40499 98.1226C8.3179 98.1226 8.23234 98.0999 8.15676 98.0567L6.66738 100.661C7.1965 100.963 7.79547 101.123 8.40499 101.123V98.1226ZM78.4999 97.6226C78.4999 97.8988 78.2761 98.1226 77.9999 98.1226V101.123C79.9329 101.123 81.4999 99.5556 81.4999 97.6226H78.4999ZM78.4341 9.66995C78.4773 9.74546 78.4999 9.8309 78.4999 9.91786H81.4999C81.4999 9.30921 81.3412 8.71107 81.0394 8.18249L78.4341 9.66995Z" fill="black"/>
<path d="M24.8354 1.50977L1.50781 23.8849V94.6041C1.50781 95.7087 2.40324 96.6041 3.50781 96.6041H74.9795C76.0841 96.6041 76.9795 95.7087 76.9795 94.6041V3.50977C76.9795 2.4052 76.0841 1.50977 74.9795 1.50977H24.8354Z" fill="white" stroke="black" stroke-width="3"/>
<path d="M0 25.6604H24.6604C25.2127 25.6604 25.6604 25.2127 25.6604 24.6604V0" stroke="black" stroke-width="2"/>
<mask id="path-5-inside-1" fill="white">
<rect x="19.6204" y="33.9626" width="39.2453" height="19.6226" rx="1"/>
</mask>
<rect x="19.6204" y="33.9626" width="39.2453" height="19.6226" rx="1" fill="white" stroke="black" stroke-width="4" mask="url(#path-5-inside-1)"/>
<mask id="path-6-inside-2" fill="white">
<rect x="10.5657" y="68.6796" width="15.0943" height="15.0943" rx="1"/>
</mask>
<rect x="10.5657" y="68.6796" width="15.0943" height="15.0943" rx="1" fill="white" stroke="black" stroke-width="4" mask="url(#path-6-inside-2)"/>
<mask id="path-7-inside-3" fill="white">
<rect x="31.6978" y="68.6796" width="15.0943" height="15.0943" rx="1"/>
</mask>
<rect x="31.6978" y="68.6796" width="15.0943" height="15.0943" rx="1" fill="white" stroke="black" stroke-width="4" mask="url(#path-7-inside-3)"/>
<mask id="path-8-inside-4" fill="white">
<rect x="52.8313" y="68.6794" width="15.0943" height="15.0943" rx="1"/>
</mask>
<rect x="52.8313" y="68.6794" width="15.0943" height="15.0943" rx="1" fill="white" stroke="black" stroke-width="4" mask="url(#path-8-inside-4)"/>
<path d="M39.2449 52.8305V69.4343" stroke="black" stroke-width="2"/>
<path d="M60.3769 69.4343L60.3769 61.1324L18.1128 61.1324L18.1128 69.4343" stroke="black" stroke-width="2"/>
<rect x="96" y="14" width="35" height="30" rx="3" fill="black" stroke="black" stroke-width="2"/>
<rect x="96" y="53" width="35" height="30" rx="3" fill="black" stroke="black" stroke-width="2"/>
<rect x="94" y="15" width="35" height="30" rx="3" fill="white" stroke="black" stroke-width="2"/>
<path d="M107.744 35.555C108.049 35.8403 108.458 36 108.884 36C109.311 36 109.72 35.8403 110.025 35.555L119.5 26.6906C119.655 26.5474 119.779 26.3763 119.865 26.1871C119.951 25.9979 119.997 25.7943 120 25.588C120.003 25.3818 119.964 25.177 119.884 24.9853C119.804 24.7937 119.686 24.6191 119.536 24.4715C119.385 24.3239 119.206 24.2063 119.008 24.1254C118.81 24.0444 118.597 24.0019 118.382 24.0001C118.166 23.9983 117.953 24.0373 117.754 24.1148C117.554 24.1924 117.373 24.307 117.219 24.452L108.885 32.2496L104.766 28.3962C104.455 28.1095 104.039 27.9521 103.608 27.9583C103.177 27.9646 102.766 28.134 102.464 28.4296C102.163 28.7252 101.996 29.123 102 29.5362C102.004 29.9493 102.178 30.3442 102.485 30.6347L107.744 35.555Z" fill="black"/>
<rect x="94" y="54" width="35" height="31" rx="3" fill="white" stroke="black" stroke-width="2"/>
<path d="M104.547 75.344C104.904 75.6843 105.391 75.8787 105.901 75.8843C106.411 75.8899 106.902 75.7063 107.267 75.3739L111.471 71.5449L115.577 75.4675C115.934 75.8044 116.42 75.9958 116.928 75.9999C117.436 76.0041 117.925 75.8206 118.288 75.4897C118.652 75.1587 118.86 74.707 118.868 74.2333C118.875 73.7596 118.682 73.3023 118.329 72.9612L114.224 69.0386L118.429 65.209C118.79 64.8758 118.995 64.4229 119 63.9492C119.004 63.4754 118.808 63.0193 118.453 62.6803C118.098 62.3413 117.614 62.147 117.106 62.1398C116.598 62.1326 116.108 62.3131 115.742 62.6419L111.535 66.4712L107.429 62.5489C107.253 62.3786 107.043 62.2425 106.81 62.1483C106.578 62.0541 106.328 62.0038 106.074 62.0002C105.82 61.9966 105.569 62.0398 105.333 62.1274C105.097 62.2149 104.883 62.3451 104.701 62.5103C104.52 62.6756 104.375 62.8727 104.276 63.0903C104.176 63.3078 104.124 63.5416 104.122 63.7782C104.119 64.0147 104.167 64.2493 104.263 64.4685C104.358 64.6877 104.499 64.8871 104.677 65.0553L108.783 68.9776L104.579 72.8072C104.399 72.9718 104.255 73.168 104.155 73.3846C104.056 73.6011 104.003 73.8339 104 74.0694C103.997 74.305 104.044 74.5388 104.138 74.7575C104.232 74.9762 104.371 75.1755 104.547 75.344Z" fill="black"/>
</svg>
