<svg width="87" height="71" viewBox="0 0 87 71" fill="none" xmlns="http://www.w3.org/2000/svg">
<rect x="24.252" y="22.8813" width="56.7481" height="42.4889" rx="1" fill="white" stroke="black" stroke-width="2"/>
<path d="M31.0131 69.6828L24.5 65.5L82.3125 66.0231L80.5 22.5L85.1982 26.0154C85.7029 26.3931 86 26.9865 86 27.6168V68C86 69.1046 85.1046 70 84 70H32.0939C31.7107 70 31.3355 69.8899 31.0131 69.6828Z" fill="black" stroke="black" stroke-linecap="round" stroke-linejoin="round"/>
<rect x="15.126" y="13.7554" width="56.7481" height="42.4889" rx="1" fill="white" stroke="black" stroke-width="2"/>
<path fill-rule="evenodd" clip-rule="evenodd" d="M61.528 12.7554H46.4948L14.126 32.6093V41.8302L61.528 12.7554ZM14.126 44.1727V53.3935L72.8741 17.3594V14.7554C72.8741 13.6508 71.9787 12.7554 70.8741 12.7554H65.3471L14.126 44.1727ZM16.126 57.2443C15.1794 57.2443 14.3865 56.5867 14.179 55.7035L72.8741 19.7019V27.5398L24.4456 57.2443H16.126ZM28.2647 57.2443H42.5464L72.8741 38.6423V29.8823L28.2647 57.2443ZM59.1441 57.2443H46.3655L72.8741 40.9848V48.8227L59.1441 57.2443ZM62.9632 57.2443H70.8741C71.9787 57.2443 72.8741 56.3488 72.8741 55.2443V51.1652L62.9632 57.2443ZM28.3941 12.7554H42.6758L14.126 30.2668V21.507L28.3941 12.7554ZM24.575 12.7554H16.126C15.0214 12.7554 14.126 13.6508 14.126 14.7554V19.1645L24.575 12.7554Z" fill="black"/>
<rect x="2" y="2.62939" width="58.7481" height="44.4889" rx="2" fill="black" stroke="black" stroke-width="4"/>
<path fill-rule="evenodd" clip-rule="evenodd" d="M4 2.62939C2.89543 2.62939 2 3.52482 2 4.62939V45.1183C2 46.2229 2.89543 47.1183 4 47.1183H58.7481C59.8527 47.1183 60.7481 46.2229 60.7481 45.1183V4.62939C60.7481 3.52483 59.8527 2.62939 58.7481 2.62939H4ZM15.9171 15.6359C17.6182 15.6359 18.9971 14.2569 18.9971 12.5559C18.9971 10.8548 17.6182 9.47582 15.9171 9.47582C14.216 9.47582 12.837 10.8548 12.837 12.5559C12.837 14.2569 14.216 15.6359 15.9171 15.6359ZM18.9981 24.8747C18.9981 26.5758 17.6191 27.9547 15.9181 27.9547C14.217 27.9547 12.838 26.5758 12.838 24.8747C12.838 23.1736 14.217 21.7946 15.9181 21.7946C17.6191 21.7946 18.9981 23.1736 18.9981 24.8747ZM15.9181 40.2737C17.6191 40.2737 18.9981 38.8947 18.9981 37.1936C18.9981 35.4926 17.6191 34.1136 15.9181 34.1136C14.217 34.1136 12.838 35.4926 12.838 37.1936C12.838 38.8947 14.217 40.2737 15.9181 40.2737ZM34.3963 12.5541C34.3963 14.2551 33.0173 15.6341 31.3163 15.6341C29.6152 15.6341 28.2362 14.2551 28.2362 12.5541C28.2362 10.853 29.6152 9.47403 31.3163 9.47403C33.0173 9.47403 34.3963 10.853 34.3963 12.5541ZM31.3163 27.9547C33.0173 27.9547 34.3963 26.5758 34.3963 24.8747C34.3963 23.1736 33.0173 21.7946 31.3163 21.7946C29.6152 21.7946 28.2362 23.1736 28.2362 24.8747C28.2362 26.5758 29.6152 27.9547 31.3163 27.9547ZM34.3963 37.1936C34.3963 38.8947 33.0173 40.2737 31.3163 40.2737C29.6152 40.2737 28.2362 38.8947 28.2362 37.1936C28.2362 35.4926 29.6152 34.1136 31.3163 34.1136C33.0173 34.1136 34.3963 35.4926 34.3963 37.1936ZM46.7181 15.6341C48.4191 15.6341 49.7981 14.2551 49.7981 12.5541C49.7981 10.853 48.4191 9.47403 46.7181 9.47403C45.017 9.47403 43.638 10.853 43.638 12.5541C43.638 14.2551 45.017 15.6341 46.7181 15.6341ZM49.7981 24.8752C49.7981 26.5763 48.4191 27.9553 46.7181 27.9553C45.017 27.9553 43.638 26.5763 43.638 24.8752C43.638 23.1742 45.017 21.7952 46.7181 21.7952C48.4191 21.7952 49.7981 23.1742 49.7981 24.8752ZM46.7181 40.2737C48.4191 40.2737 49.7981 38.8947 49.7981 37.1936C49.7981 35.4926 48.4191 34.1136 46.7181 34.1136C45.017 34.1136 43.638 35.4926 43.638 37.1936C43.638 38.8947 45.017 40.2737 46.7181 40.2737Z" fill="white"/>
</svg>
