<svg width="87" height="71" viewBox="0 0 87 71" fill="none" xmlns="http://www.w3.org/2000/svg">
<path d="M23.252 23.8813C23.252 22.7768 24.1474 21.8813 25.252 21.8813H80.0001C81.1047 21.8813 82.0001 22.7768 82.0001 23.8813V64.3702C82.0001 65.4748 81.1047 66.3702 80.0001 66.3702H25.252C24.1474 66.3702 23.252 65.4748 23.252 64.3702V23.8813Z" fill="white"/>
<path fill-rule="evenodd" clip-rule="evenodd" d="M80.0001 23.8813H25.252L25.252 64.3702H80.0001V23.8813ZM25.252 21.8813C24.1474 21.8813 23.252 22.7768 23.252 23.8813V64.3702C23.252 65.3457 23.9503 66.1581 24.8744 66.3346L30.743 70.1036C31.146 70.3624 31.6149 70.5 32.0939 70.5H84C85.3808 70.5 86.5 69.3807 86.5 68V27.6168C86.5 26.8289 86.1286 26.0871 85.4978 25.6151L81.6285 22.7199C81.2658 22.2123 80.6716 21.8813 80.0001 21.8813H25.252ZM81.7812 65.2809C81.7391 65.3631 81.6915 65.4419 81.6389 65.517L81.7911 65.5183L81.7812 65.2809Z" fill="black"/>
<path d="M14.126 14.7554C14.126 13.6508 15.0214 12.7554 16.126 12.7554H70.8741C71.9787 12.7554 72.8741 13.6508 72.8741 14.7554V55.2443C72.8741 56.3488 71.9787 57.2443 70.8741 57.2443H16.126C15.0214 57.2443 14.126 56.3488 14.126 55.2443V14.7554Z" fill="white"/>
<path fill-rule="evenodd" clip-rule="evenodd" d="M4 0.629395C1.79086 0.629395 0 2.42025 0 4.62939V45.1183C0 47.3274 1.79086 49.1183 4 49.1183H14.126V53.3935V55.2443C14.126 55.4023 14.1443 55.5561 14.179 55.7035C14.3865 56.5867 15.1794 57.2443 16.126 57.2443H24.4456H28.2647H42.5464H46.3655H59.1441H62.9632H70.8741C71.9787 57.2443 72.8741 56.3488 72.8741 55.2443V51.1652V48.8227V40.9848V38.6423V29.8823V27.5398V19.7019V17.3594V14.7554C72.8741 13.6508 71.9787 12.7554 70.8741 12.7554H65.3471H62.7481V4.62939C62.7481 2.42026 60.9573 0.629395 58.7481 0.629395H4ZM16.126 52.1668V54.5093L24.9152 49.1183H21.0961L16.126 52.1668ZM27.7063 55.2443H31.5254L41.5128 49.1183H37.6938L27.7063 55.2443ZM45.8071 55.2443H49.6262L59.8769 48.9568C59.5189 49.0619 59.1401 49.1183 58.7481 49.1183H55.7946L45.8071 55.2443ZM62.4048 55.2443H66.2239L70.8741 52.392V50.0495L62.4048 55.2443ZM70.8741 42.2115V39.869L62.7481 44.8532V45.1183C62.7481 46.1825 62.3325 47.1497 61.6547 47.8664L70.8741 42.2115ZM70.8741 31.1091V28.7666L62.7481 33.7508V36.0933L70.8741 31.1091ZM70.8741 20.9286L62.7481 25.9128V23.5703L70.8741 18.5861V20.9286Z" fill="black"/>
<rect x="2" y="2.62939" width="58.7481" height="44.4889" rx="2" fill="white"/>
<path fill-rule="evenodd" clip-rule="evenodd" d="M34.3962 12.5542C34.3962 14.2552 33.0172 15.6342 31.3161 15.6342C29.6151 15.6342 28.2361 14.2552 28.2361 12.5542C28.2361 10.8531 29.6151 9.47412 31.3161 9.47412C33.0172 9.47412 34.3962 10.8531 34.3962 12.5542ZM18.9973 12.5559C18.9973 14.2569 17.6183 15.6359 15.9172 15.6359C14.2161 15.6359 12.8372 14.2569 12.8372 12.5559C12.8372 10.8548 14.2161 9.47583 15.9172 9.47583C17.6183 9.47583 18.9973 10.8548 18.9973 12.5559ZM18.998 24.8747C18.998 26.5758 17.619 27.9548 15.9179 27.9548C14.2169 27.9548 12.8379 26.5758 12.8379 24.8747C12.8379 23.1737 14.2169 21.7947 15.9179 21.7947C17.619 21.7947 18.998 23.1737 18.998 24.8747ZM15.9179 40.2736C17.619 40.2736 18.998 38.8946 18.998 37.1936C18.998 35.4925 17.619 34.1135 15.9179 34.1135C14.2169 34.1135 12.8379 35.4925 12.8379 37.1936C12.8379 38.8946 14.2169 40.2736 15.9179 40.2736ZM31.3161 27.9548C33.0172 27.9548 34.3962 26.5758 34.3962 24.8747C34.3962 23.1737 33.0172 21.7947 31.3161 21.7947C29.6151 21.7947 28.2361 23.1737 28.2361 24.8747C28.2361 26.5758 29.6151 27.9548 31.3161 27.9548ZM34.3962 37.1936C34.3962 38.8946 33.0172 40.2736 31.3161 40.2736C29.6151 40.2736 28.2361 38.8946 28.2361 37.1936C28.2361 35.4925 29.6151 34.1135 31.3161 34.1135C33.0172 34.1135 34.3962 35.4925 34.3962 37.1936ZM46.718 15.6342C48.4191 15.6342 49.798 14.2552 49.798 12.5542C49.798 10.8531 48.4191 9.47412 46.718 9.47412C45.0169 9.47412 43.6379 10.8531 43.6379 12.5542C43.6379 14.2552 45.0169 15.6342 46.718 15.6342ZM49.798 24.8752C49.798 26.5763 48.4191 27.9553 46.718 27.9553C45.0169 27.9553 43.6379 26.5763 43.6379 24.8752C43.6379 23.1742 45.0169 21.7952 46.718 21.7952C48.4191 21.7952 49.798 23.1742 49.798 24.8752ZM46.718 40.2736C48.4191 40.2736 49.798 38.8946 49.798 37.1936C49.798 35.4925 48.4191 34.1135 46.718 34.1135C45.0169 34.1135 43.6379 35.4925 43.6379 37.1936C43.6379 38.8946 45.0169 40.2736 46.718 40.2736Z" fill="black"/>
</svg>
