<svg width="73" height="66" viewBox="0 0 73 66" fill="none" xmlns="http://www.w3.org/2000/svg">
<rect width="70" height="62" rx="2" fill="white"/>
<path fill-rule="evenodd" clip-rule="evenodd" d="M3 13V3H67V13L3 13ZM3 15V59H67V15L3 15ZM2.22222 62H2C0.89543 62 0 61.1046 0 60V2C0 0.895432 0.895431 0 2 0H68C69.1046 0 70 0.89543 70 2V2.16667L72.4866 4.92954C72.8171 5.29679 73 5.77339 73 6.26747V63.5C73 64.6046 72.1046 65.5 71 65.5H7.21393C6.75224 65.5 6.30478 65.3403 5.94745 65.0479L2.22222 62ZM45.2 6H48.8C48.9105 6 49 6.08954 49 6.2V9.8C49 9.91046 48.9105 10 48.8 10H45.2C45.0895 10 45 9.91046 45 9.8V6.2C45 6.08954 45.0895 6 45.2 6ZM55.8 6H52.2C52.0895 6 52 6.08954 52 6.2V9.8C52 9.91046 52.0895 10 52.2 10H55.8C55.9105 10 56 9.91046 56 9.8V6.2C56 6.08954 55.9105 6 55.8 6ZM59.2 6H62.8C62.9105 6 63 6.08954 63 6.2V9.8C63 9.91046 62.9105 10 62.8 10H59.2C59.0895 10 59 9.91046 59 9.8V6.2C59 6.08954 59.0895 6 59.2 6ZM18 24H9V48H18V24ZM9 22C7.89543 22 7 22.8954 7 24V48C7 49.1046 7.89543 50 9 50H18C19.1046 50 20 49.1046 20 48V24C20 22.8954 19.1046 22 18 22H9ZM61 24H25V48H61V24ZM25 22C23.8954 22 23 22.8954 23 24V48C23 49.1046 23.8954 50 25 50H61C62.1046 50 63 49.1046 63 48V24C63 22.8954 62.1046 22 61 22H25Z" fill="black"/>
</svg>
