<svg width="27" height="32" viewBox="0 0 27 32" fill="none" xmlns="http://www.w3.org/2000/svg">
<path fill-rule="evenodd" clip-rule="evenodd" d="M18.5999 13.15C17.0999 14.65 15.2699 15.41 13.1499 15.41C11.0299 15.41 9.18994 14.65 7.69994 13.16C6.19994 11.66 5.43994 9.83 5.43994 7.71C5.43994 5.59 6.20994 3.76 7.69994 2.26C9.18994 0.76 11.0299 0 13.1499 0C15.2599 0 17.0999 0.76 18.5999 2.25C20.0999 3.75 20.8599 5.58 20.8599 7.7C20.8599 9.82 20.0999 11.65 18.5999 13.15ZM13.1499 3C11.8199 3 10.7599 3.44 9.81994 4.38C8.87994 5.32 8.43994 6.38 8.43994 7.71C8.43994 9.04 8.87994 10.1 9.81994 11.04C10.7599 11.98 11.8199 12.42 13.1499 12.42C14.4799 12.42 15.5399 11.98 16.4799 11.04C17.4199 10.1 17.8599 9.04 17.8599 7.71C17.8599 6.38 17.4199 5.32 16.4799 4.38C15.5399 3.44 14.4799 3 13.1499 3ZM26.37 22.59C26.5 23.31 26.59 23.99 26.63 24.61C26.68 25.22 26.7 25.85 26.7 26.5C26.7 28.17 26.17 29.52 25.12 30.52C24.08 31.5 22.71 32 21.05 32H5.64C3.98 32 2.61 31.5 1.58 30.52C0.529999 29.52 0 28.17 0 26.5C0 25.85 0.0200005 25.22 0.0400009 24.61C0.0800018 23.99 0.169998 23.31 0.299999 22.59C0.43 21.87 0.599998 21.19 0.799999 20.56C1.01 19.91 1.29 19.27 1.64 18.66C2 18.03 2.42 17.48 2.9 17.02C3.4 16.54 4.01 16.16 4.71 15.88C5.41 15.6 6.19 15.46 7.02 15.46C7.34 15.46 7.66 15.59 8.27 15.99C8.65 16.24 9.09 16.52 9.58 16.83C10 17.09 10.57 17.34 11.27 17.57C11.96 17.79 12.65 17.9 13.34 17.9C14.03 17.9 14.73 17.79 15.41 17.57C16.11 17.35 16.68 17.1 17.1 16.83C17.3575 16.6671 17.5984 16.5097 17.8241 16.3622C18.0281 16.229 18.2197 16.1039 18.4 15.99C19.01 15.59 19.32 15.46 19.65 15.46C20.48 15.46 21.26 15.6 21.96 15.88C22.66 16.16 23.27 16.54 23.77 17.02C24.25 17.47 24.67 18.03 25.03 18.66C25.38 19.28 25.66 19.91 25.87 20.56C26.07 21.18 26.24 21.87 26.37 22.59ZM23.0457 28.344L23.05 28.34C23.33 28.08 23.7 27.6 23.71 26.5C23.71 25.93 23.69 25.36 23.65 24.82C23.61 24.31 23.54 23.73 23.43 23.12C23.32 22.52 23.19 21.97 23.03 21.47C22.88 21.02 22.69 20.57 22.44 20.14C22.22 19.75 21.97 19.43 21.71 19.18C21.5 18.97 21.21 18.8 20.87 18.66C20.64 18.56 20.38 18.5 20.09 18.47C20.08 18.47 20.06 18.48 20.05 18.49C19.67 18.74 19.22 19.03 18.72 19.35C18.08 19.76 17.3 20.11 16.34 20.42C15.36 20.74 14.35 20.9 13.35 20.9C12.35 20.9 11.34 20.74 10.36 20.42C9.4 20.11 8.62 19.76 7.98 19.35C7.70761 19.1756 7.45302 19.0102 7.21463 18.8553C7.01543 18.7259 6.82753 18.6038 6.65 18.49C6.63 18.49 6.62 18.48 6.61 18.47C6.33 18.5 6.07 18.57 5.83 18.66C5.49 18.8 5.21 18.97 4.99 19.18C4.73 19.44 4.49 19.76 4.27 20.14C4.02 20.57 3.82 21.02 3.68 21.47C3.52 21.97 3.39 22.53 3.28 23.12C3.17 23.73 3.1 24.3 3.06 24.82C3.02 25.36 3 25.93 3 26.5C3 27.6 3.37 28.08 3.64 28.34C3.81 28.51 4.33 29 5.64 29H21.05C22.3491 29 22.8713 28.5082 23.0457 28.344Z" fill="#4F4F4F"/>
</svg>
