<svg width="99" height="116" viewBox="0 0 99 116" fill="none" xmlns="http://www.w3.org/2000/svg">
<path d="M78.0003 61.024L77.9796 52.9482H72.4503C71.9237 49.6879 70.6702 47.6448 68.7483 44.959L72.686 41.0214L64.6757 34.4416L62.0161 37.7728V39.0879C59.331 37.1505 58.0084 36.7564 54.7412 36.2193V30H46.7669V36.2193C43.4996 36.7564 41.351 38.0444 38.6658 39.9819L32.104 34.4416L27.1372 39.4088L33.7094 44.9594C31.7874 47.6452 30.5133 50.7394 29.9867 53.9998L21 54.0015V61.0257L30.0087 61.0236C30.5518 64.2683 31.8357 67.344 33.7605 70.0119L28.025 74.9675L32.9918 79.9343L38.7385 74.9675C41.4074 76.877 43.5288 78.147 46.7669 78.6794L44.3184 79.9343V84.2831H54.7412V78.6816C57.9793 78.1492 58.8731 78.0775 61.542 76.1681L65.5416 80.1676L72.6868 74.0025L68.6984 70.0141C70.6233 67.3462 71.9072 64.2704 72.4503 61.0257L78.0003 61.024Z" fill="black" stroke="black" stroke-width="3"/>
<circle cx="50.424" cy="58.1496" r="13.0612" fill="#F6F0E1" stroke="black" stroke-width="7"/>
<path fill-rule="evenodd" clip-rule="evenodd" d="M74.5429 53.2591V60.2838L68.9929 60.2855C68.4498 63.5301 67.1659 66.6059 65.241 69.2738L69.2294 73.2622L64.2626 78.229L60.263 74.2294C57.5942 76.1389 54.5219 77.4089 51.2838 77.9413V83.5429H44.2604V77.9391C41.0223 77.4068 37.95 76.1367 35.2811 74.2273L31.2815 78.2269L26.3147 73.2601L30.3031 69.2716C28.3782 66.6038 27.0944 63.528 26.5513 60.2833L21 60.2223V53.198L26.5293 53.2595C27.0559 49.9992 28.33 46.905 30.2519 44.2192L26.3143 40.2815L31.2811 35.3143L35.2084 39.2416C37.8936 37.3041 40.9917 36.0161 44.2591 35.479V30H51.2838V35.479C54.551 36.0162 57.649 37.3042 60.334 39.2416L64.2613 35.3143L69.2286 40.2811L65.2909 44.2187C67.2128 46.9045 68.487 49.9987 69.0135 53.2591H74.5429ZM47.7721 66.333C53.0527 66.333 57.3334 62.0523 57.3334 56.7718C57.3334 51.4913 53.0527 47.2106 47.7721 47.2106C42.4916 47.2106 38.2109 51.4913 38.2109 56.7718C38.2109 62.0523 42.4916 66.333 47.7721 66.333Z" fill="white"/>
<path d="M74.5429 60.2838L74.5433 61.7838L76.0429 61.7833V60.2838H74.5429ZM74.5429 53.2591H76.0429V51.7591H74.5429V53.2591ZM68.9929 60.2855L68.9924 58.7855L67.723 58.7859L67.5135 60.0378L68.9929 60.2855ZM65.241 69.2738L64.0246 68.3961L63.2775 69.4316L64.1804 70.3345L65.241 69.2738ZM69.2294 73.2622L70.2901 74.3229L71.3507 73.2622L70.2901 72.2015L69.2294 73.2622ZM64.2626 78.229L63.202 79.2897L64.2626 80.3503L65.3233 79.2897L64.2626 78.229ZM60.263 74.2294L61.3237 73.1688L60.4245 72.2695L59.3902 73.0095L60.263 74.2294ZM51.2838 77.9413L51.0404 76.4612L49.7838 76.6678V77.9413H51.2838ZM51.2838 83.5429V85.0429H52.7838V83.5429H51.2838ZM44.2604 83.5429H42.7604V85.0429H44.2604V83.5429ZM44.2604 77.9391H45.7604V76.6656L44.5037 76.459L44.2604 77.9391ZM35.2811 74.2273L36.1539 73.0073L35.1197 72.2674L34.2204 73.1666L35.2811 74.2273ZM31.2815 78.2269L30.2209 79.2875L31.2815 80.3482L32.3422 79.2875L31.2815 78.2269ZM26.3147 73.2601L25.2541 72.1994L24.1934 73.2601L25.2541 74.3207L26.3147 73.2601ZM30.3031 69.2716L31.3638 70.3323L32.2666 69.4295L31.5196 68.394L30.3031 69.2716ZM26.5513 60.2833L28.0307 60.0357L27.8234 58.7972L26.5678 58.7834L26.5513 60.2833ZM21 60.2223H19.5V61.7058L20.9835 61.7222L21 60.2223ZM21 53.198L21.0167 51.6981L19.5 51.6813V53.198H21ZM26.5293 53.2595L26.5126 54.7594L27.8042 54.7738L28.0101 53.4987L26.5293 53.2595ZM30.2519 44.2192L31.4718 45.0921L32.2119 44.0578L31.3126 43.1585L30.2519 44.2192ZM26.3143 40.2815L25.2536 39.2209L24.193 40.2816L25.2536 41.3422L26.3143 40.2815ZM31.2811 35.3143L32.3418 34.2536L31.281 33.1929L30.2204 34.2537L31.2811 35.3143ZM35.2084 39.2416L34.1478 40.3023L35.0507 41.2052L36.0861 40.458L35.2084 39.2416ZM44.2591 35.479L44.5024 36.9591L45.7591 36.7526V35.479H44.2591ZM44.2591 30V28.5H42.7591V30H44.2591ZM51.2838 30H52.7838V28.5H51.2838V30ZM51.2838 35.479H49.7838V36.7525L51.0404 36.9591L51.2838 35.479ZM60.334 39.2416L59.4563 40.458L60.4918 41.2052L61.3947 40.3023L60.334 39.2416ZM64.2613 35.3143L65.322 34.2536L64.2613 33.193L63.2007 34.2536L64.2613 35.3143ZM69.2286 40.2811L70.2892 41.3418L71.3499 40.281L70.2892 39.2204L69.2286 40.2811ZM65.2909 44.2187L64.2303 43.1581L63.331 44.0574L64.0711 45.0917L65.2909 44.2187ZM69.0135 53.2591L67.5327 53.4983L67.7364 54.7591H69.0135V53.2591ZM76.0429 60.2838V53.2591H73.0429V60.2838H76.0429ZM68.9934 61.7855L74.5433 61.7838L74.5424 58.7838L68.9924 58.7855L68.9934 61.7855ZM66.4575 70.1515C68.5173 67.2966 69.8911 64.0052 70.4723 60.5331L67.5135 60.0378C67.0084 63.0551 65.8146 65.9153 64.0246 68.3961L66.4575 70.1515ZM70.2901 72.2015L66.3017 68.2131L64.1804 70.3345L68.1688 74.3229L70.2901 72.2015ZM65.3233 79.2897L70.2901 74.3229L68.1688 72.2015L63.202 77.1683L65.3233 79.2897ZM59.2024 75.2901L63.202 79.2897L65.3233 77.1683L61.3237 73.1688L59.2024 75.2901ZM51.5271 79.4214C54.9922 78.8517 58.2799 77.4927 61.1358 75.4493L59.3902 73.0095C56.9085 74.7851 54.0515 75.9661 51.0404 76.4612L51.5271 79.4214ZM52.7838 83.5429V77.9413H49.7838V83.5429H52.7838ZM44.2604 85.0429H51.2838V82.0429H44.2604V85.0429ZM42.7604 77.9391V83.5429H45.7604V77.9391H42.7604ZM34.4083 75.4472C37.2643 77.4905 40.5519 78.8496 44.017 79.4193L44.5037 76.459C41.4926 75.9639 38.6357 74.7829 36.1539 73.0073L34.4083 75.4472ZM32.3422 79.2875L36.3418 75.2879L34.2204 73.1666L30.2209 77.1662L32.3422 79.2875ZM25.2541 74.3207L30.2209 79.2875L32.3422 77.1662L27.3754 72.1994L25.2541 74.3207ZM29.2425 68.211L25.2541 72.1994L27.3754 74.3207L31.3638 70.3323L29.2425 68.211ZM25.0718 60.531C25.653 64.0031 27.0269 67.2944 29.0867 70.1493L31.5196 68.394C29.7296 65.9131 28.5357 63.0529 28.0307 60.0357L25.0718 60.531ZM20.9835 61.7222L26.5348 61.7832L26.5678 58.7834L21.0165 58.7224L20.9835 61.7222ZM19.5 53.198V60.2223H22.5V53.198H19.5ZM26.546 51.7596L21.0167 51.6981L20.9833 54.6979L26.5126 54.7594L26.546 51.7596ZM29.0321 43.3463C26.9755 46.2203 25.612 49.5315 25.0485 53.0204L28.0101 53.4987C28.4998 50.4669 29.6846 47.5896 31.4718 45.0921L29.0321 43.3463ZM25.2536 41.3422L29.1913 45.2798L31.3126 43.1585L27.375 39.2209L25.2536 41.3422ZM30.2204 34.2537L25.2536 39.2209L27.375 41.3421L32.3418 36.3749L30.2204 34.2537ZM36.2691 38.181L32.3418 34.2536L30.2204 36.375L34.1478 40.3023L36.2691 38.181ZM44.0158 33.9989C40.5194 34.5736 37.2041 35.9519 34.3307 38.0252L36.0861 40.458C38.5831 38.6563 41.4641 37.4586 44.5024 36.9591L44.0158 33.9989ZM42.7591 30V35.479H45.7591V30H42.7591ZM51.2838 28.5H44.2591V31.5H51.2838V28.5ZM52.7838 35.479V30H49.7838V35.479H52.7838ZM61.2117 38.0252C58.3385 35.952 55.0233 34.5737 51.5271 33.9989L51.0404 36.9591C54.0786 37.4586 56.9595 38.6563 59.4563 40.458L61.2117 38.0252ZM63.2007 34.2536L59.2733 38.181L61.3947 40.3023L65.322 36.375L63.2007 34.2536ZM70.2892 39.2204L65.322 34.2536L63.2007 36.375L68.168 41.3418L70.2892 39.2204ZM66.3516 45.2794L70.2892 41.3418L68.1679 39.2204L64.2303 43.1581L66.3516 45.2794ZM70.4944 53.0199C69.9309 49.531 68.5674 46.2199 66.5108 43.3458L64.0711 45.0917C65.8583 47.5892 67.0431 50.4665 67.5327 53.4983L70.4944 53.0199ZM74.5429 51.7591H69.0135V54.7591H74.5429V51.7591ZM55.8334 56.7718C55.8334 61.2239 52.2242 64.833 47.7721 64.833V67.833C53.8811 67.833 58.8334 62.8807 58.8334 56.7718H55.8334ZM47.7721 48.7106C52.2242 48.7106 55.8334 52.3197 55.8334 56.7718H58.8334C58.8334 50.6628 53.8811 45.7106 47.7721 45.7106V48.7106ZM39.7109 56.7718C39.7109 52.3197 43.32 48.7106 47.7721 48.7106V45.7106C41.6632 45.7106 36.7109 50.6628 36.7109 56.7718H39.7109ZM47.7721 64.833C43.32 64.833 39.7109 61.2239 39.7109 56.7718H36.7109C36.7109 62.8807 41.6632 67.833 47.7721 67.833V64.833Z" fill="black"/>
<circle cx="49.5" cy="58.6224" r="48" stroke="black" stroke-width="3"/>
<path d="M72.094 13.7472C72.7426 14.2616 72.521 15.2963 71.7186 15.4999L55.8769 19.5202C55.1581 19.7026 54.4978 19.0666 54.6531 18.3415L57.6896 4.165C57.8449 3.43986 58.7078 3.13012 59.2888 3.59095L72.094 13.7472Z" fill="black"/>
<path d="M31.6441 103.759C30.8853 104.09 30.8342 105.147 31.5575 105.549L45.8385 113.497C46.4865 113.858 47.2878 113.413 47.3236 112.672L48.0241 98.1908C48.0599 97.4501 47.3053 96.9295 46.6255 97.2259L31.6441 103.759Z" fill="black"/>
</svg>
