<svg width="61" height="58" viewBox="0 0 61 58" fill="none" xmlns="http://www.w3.org/2000/svg">
<path d="M59.0003 33.024L58.9796 24.9482H53.4503C52.9237 21.6879 51.6702 19.6448 49.7483 16.959L53.686 13.0214L45.6757 6.4416L43.0161 9.77279V11.0879C40.331 9.15046 39.0084 8.75643 35.7412 8.21927V2H27.7669V8.21927C24.4996 8.75637 22.351 10.0444 19.6658 11.9819L13.104 6.4416L8.13719 11.4088L14.7094 16.9594C12.7874 19.6452 11.5133 22.7394 10.9867 25.9998L2 26.0015V33.0257L11.0087 33.0236C11.5518 36.2683 12.8357 39.344 14.7605 42.0119L9.02502 46.9675L13.9918 51.9343L19.7385 46.9675C22.4074 48.877 24.5288 50.147 27.7669 50.6794L25.3184 51.9343V56.2831H35.7412V50.6816C38.9793 50.1492 39.8731 50.0775 42.542 48.1681L46.5416 52.1676L53.6868 46.0025L49.6984 42.0141C51.6233 39.3462 52.9072 36.2704 53.4503 33.0257L59.0003 33.024Z" fill="black" stroke="black" stroke-width="3"/>
<circle cx="31.424" cy="30.1496" r="13.0612" fill="#A6D7C9" stroke="black" stroke-width="7"/>
<path fill-rule="evenodd" clip-rule="evenodd" d="M55.5429 25.2591V32.2838L49.9929 32.2855C49.4498 35.5301 48.1659 38.6059 46.241 41.2738L50.2294 45.2622L45.2626 50.229L41.263 46.2294C38.5942 48.1389 35.5219 49.4089 32.2838 49.9413V55.5429H25.2604V49.9391C22.0223 49.4068 18.95 48.1367 16.2811 46.2273L12.2815 50.2269L7.31472 45.2601L11.3031 41.2716C9.37824 38.6038 8.09437 35.528 7.55126 32.2833L2 32.2223V25.198L7.52932 25.2595C8.0559 21.9992 9.33003 18.905 11.2519 16.2192L7.31429 12.2815L12.2811 7.31429L16.2084 11.2416C18.8936 9.30409 21.9917 8.0161 25.2591 7.479V2H32.2838V7.479C35.551 8.01616 38.649 9.30415 41.334 11.2416L45.2613 7.31429L50.2286 12.2811L46.2909 16.2187C48.2128 18.9045 49.487 21.9987 50.0135 25.2591H55.5429ZM28.7721 38.333C34.0527 38.333 38.3334 34.0523 38.3334 28.7718C38.3334 23.4913 34.0527 19.2106 28.7721 19.2106C23.4916 19.2106 19.2109 23.4913 19.2109 28.7718C19.2109 34.0523 23.4916 38.333 28.7721 38.333Z" fill="#F6F0E1"/>
<path d="M55.5429 32.2838L55.5433 33.7838L57.0429 33.7833V32.2838H55.5429ZM55.5429 25.2591H57.0429V23.7591H55.5429V25.2591ZM49.9929 32.2855L49.9924 30.7855L48.723 30.7859L48.5135 32.0378L49.9929 32.2855ZM46.241 41.2738L45.0246 40.3961L44.2775 41.4316L45.1804 42.3345L46.241 41.2738ZM50.2294 45.2622L51.2901 46.3229L52.3507 45.2622L51.2901 44.2015L50.2294 45.2622ZM45.2626 50.229L44.202 51.2897L45.2626 52.3503L46.3233 51.2897L45.2626 50.229ZM41.263 46.2294L42.3237 45.1688L41.4245 44.2695L40.3902 45.0095L41.263 46.2294ZM32.2838 49.9413L32.0404 48.4612L30.7838 48.6678V49.9413H32.2838ZM32.2838 55.5429V57.0429H33.7838V55.5429H32.2838ZM25.2604 55.5429H23.7604V57.0429H25.2604V55.5429ZM25.2604 49.9391H26.7604V48.6656L25.5037 48.459L25.2604 49.9391ZM16.2811 46.2273L17.1539 45.0073L16.1197 44.2674L15.2204 45.1666L16.2811 46.2273ZM12.2815 50.2269L11.2209 51.2875L12.2815 52.3482L13.3422 51.2875L12.2815 50.2269ZM7.31472 45.2601L6.25406 44.1994L5.1934 45.2601L6.25406 46.3207L7.31472 45.2601ZM11.3031 41.2716L12.3638 42.3323L13.2666 41.4295L12.5196 40.394L11.3031 41.2716ZM7.55126 32.2833L9.03067 32.0357L8.82337 30.7972L7.56776 30.7834L7.55126 32.2833ZM2 32.2223H0.5V33.7058L1.9835 33.7222L2 32.2223ZM2 25.198L2.01668 23.6981L0.5 23.6813V25.198H2ZM7.52932 25.2595L7.51264 26.7594L8.80419 26.7738L9.01013 25.4987L7.52932 25.2595ZM11.2519 16.2192L12.4718 17.0921L13.2119 16.0578L12.3126 15.1585L11.2519 16.2192ZM7.31429 12.2815L6.25358 11.2209L5.19302 12.2816L6.25363 13.3422L7.31429 12.2815ZM12.2811 7.31429L13.3418 6.25363L12.281 5.19292L11.2204 6.25368L12.2811 7.31429ZM16.2084 11.2416L15.1478 12.3023L16.0507 13.2052L17.0861 12.458L16.2084 11.2416ZM25.2591 7.479L25.5024 8.95914L26.7591 8.75256V7.479H25.2591ZM25.2591 2V0.5H23.7591V2H25.2591ZM32.2838 2H33.7838V0.5H32.2838V2ZM32.2838 7.479H30.7838V8.75253L32.0404 8.95913L32.2838 7.479ZM41.334 11.2416L40.4563 12.458L41.4918 13.2052L42.3947 12.3023L41.334 11.2416ZM45.2613 7.31429L46.322 6.25358L45.2613 5.19302L44.2007 6.25363L45.2613 7.31429ZM50.2286 12.2811L51.2892 13.3418L52.3499 12.281L51.2892 11.2204L50.2286 12.2811ZM46.2909 16.2187L45.2303 15.1581L44.331 16.0574L45.0711 17.0917L46.2909 16.2187ZM50.0135 25.2591L48.5327 25.4983L48.7364 26.7591H50.0135V25.2591ZM57.0429 32.2838V25.2591H54.0429V32.2838H57.0429ZM49.9934 33.7855L55.5433 33.7838L55.5424 30.7838L49.9924 30.7855L49.9934 33.7855ZM47.4575 42.1515C49.5173 39.2966 50.8911 36.0052 51.4723 32.5331L48.5135 32.0378C48.0084 35.0551 46.8146 37.9153 45.0246 40.3961L47.4575 42.1515ZM51.2901 44.2015L47.3017 40.2131L45.1804 42.3345L49.1688 46.3229L51.2901 44.2015ZM46.3233 51.2897L51.2901 46.3229L49.1688 44.2015L44.202 49.1683L46.3233 51.2897ZM40.2024 47.2901L44.202 51.2897L46.3233 49.1683L42.3237 45.1688L40.2024 47.2901ZM32.5271 51.4214C35.9922 50.8517 39.2799 49.4927 42.1358 47.4493L40.3902 45.0095C37.9085 46.7851 35.0515 47.9661 32.0404 48.4612L32.5271 51.4214ZM33.7838 55.5429V49.9413H30.7838V55.5429H33.7838ZM25.2604 57.0429H32.2838V54.0429H25.2604V57.0429ZM23.7604 49.9391V55.5429H26.7604V49.9391H23.7604ZM15.4083 47.4472C18.2643 49.4905 21.5519 50.8496 25.017 51.4193L25.5037 48.459C22.4926 47.9639 19.6357 46.7829 17.1539 45.0073L15.4083 47.4472ZM13.3422 51.2875L17.3418 47.2879L15.2204 45.1666L11.2209 49.1662L13.3422 51.2875ZM6.25406 46.3207L11.2209 51.2875L13.3422 49.1662L8.37538 44.1994L6.25406 46.3207ZM10.2425 40.211L6.25406 44.1994L8.37538 46.3207L12.3638 42.3323L10.2425 40.211ZM6.07184 32.531C6.65302 36.0031 8.02688 39.2944 10.0867 42.1493L12.5196 40.394C10.7296 37.9131 9.53572 35.0529 9.03067 32.0357L6.07184 32.531ZM1.9835 33.7222L7.53476 33.7832L7.56776 30.7834L2.0165 30.7224L1.9835 33.7222ZM0.5 25.198V32.2223H3.5V25.198H0.5ZM7.546 23.7596L2.01668 23.6981L1.98332 26.6979L7.51264 26.7594L7.546 23.7596ZM10.0321 15.3463C7.97545 18.2203 6.612 21.5315 6.04851 25.0204L9.01013 25.4987C9.49979 22.4669 10.6846 19.5896 12.4718 17.0921L10.0321 15.3463ZM6.25363 13.3422L10.1913 17.2798L12.3126 15.1585L8.37495 11.2209L6.25363 13.3422ZM11.2204 6.25368L6.25358 11.2209L8.375 13.3421L13.3418 8.3749L11.2204 6.25368ZM17.2691 10.181L13.3418 6.25363L11.2204 8.37495L15.1478 12.3023L17.2691 10.181ZM25.0158 5.99887C21.5194 6.57361 18.2041 7.95188 15.3307 10.0252L17.0861 12.458C19.5831 10.6563 22.4641 9.45859 25.5024 8.95914L25.0158 5.99887ZM23.7591 2V7.479H26.7591V2H23.7591ZM32.2838 0.5H25.2591V3.5H32.2838V0.5ZM33.7838 7.479V2H30.7838V7.479H33.7838ZM42.2117 10.0252C39.3385 7.95196 36.0233 6.57369 32.5271 5.99888L32.0404 8.95913C35.0786 9.45864 37.9595 10.6563 40.4563 12.458L42.2117 10.0252ZM44.2007 6.25363L40.2733 10.181L42.3947 12.3023L46.322 8.37495L44.2007 6.25363ZM51.2892 11.2204L46.322 6.25358L44.2007 8.375L49.168 13.3418L51.2892 11.2204ZM47.3516 17.2794L51.2892 13.3418L49.1679 11.2204L45.2303 15.1581L47.3516 17.2794ZM51.4944 25.0199C50.9309 21.531 49.5674 18.2199 47.5108 15.3458L45.0711 17.0917C46.8583 19.5892 48.0431 22.4665 48.5327 25.4983L51.4944 25.0199ZM55.5429 23.7591H50.0135V26.7591H55.5429V23.7591ZM36.8334 28.7718C36.8334 33.2239 33.2242 36.833 28.7721 36.833V39.833C34.8811 39.833 39.8334 34.8807 39.8334 28.7718H36.8334ZM28.7721 20.7106C33.2242 20.7106 36.8334 24.3197 36.8334 28.7718H39.8334C39.8334 22.6628 34.8811 17.7106 28.7721 17.7106V20.7106ZM20.7109 28.7718C20.7109 24.3197 24.32 20.7106 28.7721 20.7106V17.7106C22.6632 17.7106 17.7109 22.6628 17.7109 28.7718H20.7109ZM28.7721 36.833C24.32 36.833 20.7109 33.2239 20.7109 28.7718H17.7109C17.7109 34.8807 22.6632 39.833 28.7721 39.833V36.833Z" fill="black"/>
</svg>
