<svg width="62" height="57" viewBox="0 0 62 57" fill="none" xmlns="http://www.w3.org/2000/svg">
<path d="M59.9136 16.6899H59.1337V3.20125C59.1327 2.52853 58.8653 1.88366 58.3902 1.40798C57.9151 0.932299 57.271 0.664607 56.5991 0.663574H30.8243C30.1365 0.663574 29.477 0.937105 28.9907 1.42399C28.5044 1.91088 28.2312 2.57124 28.2312 3.25981V10.1896H15.2073C14.5195 10.1896 13.86 10.4631 13.3737 10.95C12.8874 11.4369 12.6142 12.0973 12.6142 12.7858V33.3019L9.70916 29.3275C9.56041 29.1235 9.36562 28.9574 9.14066 28.843C8.9157 28.7285 8.66692 28.6688 8.41457 28.6688C8.16223 28.6688 7.91344 28.7285 7.68848 28.843C7.46352 28.9574 7.26873 29.1235 7.11998 29.3275L0.779603 37.983C0.604405 38.2222 0.498895 38.5055 0.474793 38.8012C0.450691 39.0968 0.508942 39.3934 0.643075 39.658C0.777207 39.9225 0.981969 40.1447 1.23461 40.2997C1.48725 40.4548 1.77787 40.5366 2.07419 40.5363H2.85407V54.021C2.8551 54.6938 3.12247 55.3386 3.59757 55.8143C4.07268 56.29 4.71676 56.5577 5.38866 56.5587H31.1713C31.8587 56.5577 32.5177 56.2838 33.0037 55.7972C33.4898 55.3105 33.7634 54.6507 33.7644 53.9625V51.0617H50.828C51.5161 51.0607 52.1757 50.7863 52.6619 50.2988C53.148 49.8113 53.4211 49.1505 53.4211 48.4616V28.5858L53.772 28.5467C53.9937 28.5256 54.2083 28.4571 54.4013 28.346C54.5943 28.2349 54.7614 28.0837 54.8912 27.9025L61.2199 19.2471C61.396 19.0081 61.5024 18.7249 61.5272 18.4289C61.5521 18.133 61.4944 17.8359 61.3606 17.5708C61.2268 17.3057 61.0221 17.083 60.7694 16.9275C60.5167 16.772 60.2258 16.6898 59.9292 16.6899H59.9136Z" fill="#F6F0E1"/>
<path d="M52.8281 27.6293V48.4616C52.8286 48.726 52.7771 48.9879 52.6764 49.2323C52.5757 49.4767 52.4278 49.6988 52.2413 49.8859C52.0548 50.073 51.8332 50.2214 51.5893 50.3227C51.3454 50.424 51.084 50.4762 50.8199 50.4762H33.1714V46.4588H46.8192C47.3515 46.4578 47.8617 46.2456 48.238 45.8688C48.6144 45.4919 48.8263 44.9811 48.8274 44.4482V22.1284L49.4474 22.9756L52.676 27.4068L52.7852 27.5551C52.7891 27.5786 52.8047 27.6059 52.8281 27.6293Z" fill="black" stroke="black" stroke-width="2" stroke-linecap="round" stroke-linejoin="round"/>
<path d="M48.8119 22.3198V44.4405C48.8124 44.706 48.7605 44.9691 48.6592 45.2144C48.5578 45.4598 48.409 45.6827 48.2212 45.8703C48.0335 46.0579 47.8106 46.2064 47.5653 46.3075C47.3201 46.4085 47.0573 46.46 46.7921 46.4589H15.2072C14.6746 46.4589 14.1638 46.2471 13.7872 45.87C13.4105 45.493 13.199 44.9816 13.199 44.4483V40.1148" stroke="black" stroke-width="2" stroke-linecap="round" stroke-linejoin="round"/>
<path d="M13.1794 35.0978V12.7859C13.1794 12.5202 13.232 12.2571 13.3341 12.0119C13.4363 11.7667 13.586 11.5442 13.7745 11.3572C13.963 11.1702 14.1867 11.0225 14.4326 10.9227C14.6785 10.8228 14.9418 10.7727 15.2071 10.7752H46.792C47.325 10.7752 47.8362 10.9869 48.2134 11.3639C48.5906 11.7409 48.8031 12.2523 48.8041 12.7859V17.2756" stroke="black" stroke-width="2" stroke-linecap="round" stroke-linejoin="round"/>
<path d="M28.1497 20.3989V26.1302C28.1497 26.2337 28.1907 26.333 28.2639 26.4062C28.337 26.4794 28.4362 26.5206 28.5396 26.5206H48.8163" stroke="black" stroke-width="2" stroke-linecap="round" stroke-linejoin="round"/>
<path d="M45.9302 18.8957H35.6827C35.5792 18.8957 35.4801 18.8546 35.4069 18.7813C35.3338 18.7081 35.2927 18.6088 35.2927 18.5053V10.7751" stroke="black" stroke-width="2" stroke-linecap="round" stroke-linejoin="round"/>
<path d="M20.8149 10.7751V33.6767C20.8149 33.7802 20.856 33.8795 20.9292 33.9527C21.0023 34.0259 21.1015 34.0671 21.2049 34.0671H26.1259C26.6588 34.0671 27.17 34.2788 27.5473 34.6557C27.9245 35.0327 28.1369 35.5441 28.138 36.0777V37.6862" stroke="black" stroke-width="2" stroke-linecap="round" stroke-linejoin="round"/>
<path d="M35.2815 46.4589V34.1804C35.2815 34.0769 35.3226 33.9776 35.3957 33.9044C35.4688 33.8312 35.568 33.79 35.6714 33.79H40.8966" stroke="black" stroke-width="2" stroke-linecap="round" stroke-linejoin="round"/>
<path d="M42.0464 46.4589V40.5247C42.0464 40.4211 42.0875 40.3218 42.1606 40.2486C42.2337 40.1754 42.3329 40.1343 42.4363 40.1343H48.8001" stroke="black" stroke-width="2" stroke-linecap="round" stroke-linejoin="round"/>
<path d="M28.1492 20.1999C29.1484 20.1999 29.9585 19.3889 29.9585 18.3884C29.9585 17.3879 29.1484 16.5769 28.1492 16.5769C27.1499 16.5769 26.3398 17.3879 26.3398 18.3884C26.3398 19.3889 27.1499 20.1999 28.1492 20.1999Z" stroke="black" stroke-width="2" stroke-linecap="round" stroke-linejoin="round"/>
<path d="M28.1492 41.6218C29.1484 41.6218 29.9585 40.8108 29.9585 39.8103C29.9585 38.8098 29.1484 37.9988 28.1492 37.9988C27.1499 37.9988 26.3398 38.8098 26.3398 39.8103C26.3398 40.8108 27.1499 41.6218 28.1492 41.6218Z" stroke="black" stroke-width="2" stroke-linecap="round" stroke-linejoin="round"/>
<path d="M42.7134 35.5898C43.7126 35.5898 44.5227 34.7788 44.5227 33.7783C44.5227 32.7778 43.7126 31.9668 42.7134 31.9668C41.7141 31.9668 40.9041 32.7778 40.9041 33.7783C40.9041 34.7788 41.7141 35.5898 42.7134 35.5898Z" stroke="black" stroke-width="2" stroke-linecap="round" stroke-linejoin="round"/>
<path d="M17.196 55.9732H5.3809C5.12486 55.9732 4.87133 55.9227 4.63478 55.8246C4.39824 55.7265 4.1833 55.5827 4.00226 55.4014C3.82121 55.2202 3.6776 55.005 3.57962 54.7682C3.48164 54.5313 3.43121 54.2775 3.43121 54.0211V39.9663H2.07423C1.8862 39.9665 1.7018 39.9146 1.54147 39.8162C1.38115 39.7179 1.25116 39.577 1.16595 39.4092C1.08073 39.2414 1.04361 39.0532 1.05871 38.8656C1.0738 38.6779 1.14052 38.4981 1.25146 38.3461L3.43121 35.3595L4.23448 34.2624L7.57624 29.6712C7.67025 29.5414 7.79365 29.4357 7.93633 29.3628C8.079 29.2899 8.23689 29.252 8.39706 29.252C8.55723 29.252 8.71512 29.2899 8.85779 29.3628C9.00047 29.4357 9.12386 29.5414 9.21788 29.6712L12.5596 34.2468L13.1796 35.0979L15.5193 38.3266C15.6298 38.479 15.6962 38.6589 15.7112 38.8467C15.7261 39.0344 15.689 39.2226 15.6039 39.3906C15.5188 39.5585 15.3891 39.6997 15.2289 39.7985C15.0688 39.8974 14.8846 39.95 14.6965 39.9507H13.1796V51.952" stroke="black" stroke-width="2" stroke-linecap="round" stroke-linejoin="round"/>
<path d="M33.1715 46.459V53.9705C33.1715 54.5037 32.9599 55.0151 32.5833 55.3922C32.2067 55.7693 31.6959 55.9811 31.1633 55.9811H15.1291C14.612 55.9811 14.1161 55.7754 13.7505 55.4094C13.3849 55.0433 13.1794 54.5468 13.1794 54.0291V46.459H33.1715Z" stroke="black" stroke-width="2" stroke-linecap="round" stroke-linejoin="round"/>
<path d="M44.7917 1.24927H56.6068C57.1239 1.24927 57.6198 1.45493 57.9855 1.82101C58.3511 2.18709 58.5565 2.68361 58.5565 3.20132V17.2756H59.9135C60.1015 17.2754 60.2859 17.3274 60.4463 17.4257C60.6066 17.5241 60.7366 17.665 60.8218 17.8328C60.907 18.0006 60.9441 18.1888 60.929 18.3764C60.9139 18.5641 60.8472 18.7439 60.7363 18.8958L58.5565 21.8825L57.7767 22.9756L54.4349 27.5552C54.3452 27.6787 54.2289 27.7805 54.0946 27.8529C53.9604 27.9254 53.8115 27.9667 53.6592 27.9738C53.5068 27.981 53.3548 27.9537 53.2143 27.8941C53.0739 27.8344 52.9487 27.744 52.8479 27.6293C52.8245 27.6059 52.8089 27.5786 52.7894 27.5552L52.6802 27.4068L49.4515 22.9756L48.8315 22.1284L48.6638 21.8981L46.4685 18.8958C46.3575 18.7439 46.2908 18.5641 46.2757 18.3764C46.2606 18.1888 46.2977 18.0006 46.383 17.8328C46.4682 17.665 46.5982 17.5241 46.7585 17.4257C46.9188 17.3274 47.1032 17.2754 47.2912 17.2756H48.851V5.2744" stroke="black" stroke-width="2" stroke-linecap="round" stroke-linejoin="round"/>
<path d="M28.8162 10.7753V3.26379C28.8162 2.73054 29.0277 2.21913 29.4043 1.84207C29.7809 1.46501 30.2917 1.25317 30.8243 1.25317H46.8586C47.3756 1.25317 47.8716 1.45884 48.2372 1.82492C48.6028 2.191 48.8082 2.68751 48.8082 3.20523V10.7753H28.8162Z" stroke="black" stroke-width="2" stroke-linecap="round" stroke-linejoin="round"/>
<path d="M13.1794 40.1147H20.8144V46.0998" stroke="black" stroke-width="2" stroke-linecap="round" stroke-linejoin="round"/>
<path d="M17.1958 46.459V55.9811H16.0611C15.2968 55.9811 14.5639 55.6771 14.0235 55.1361C13.483 54.595 13.1794 53.8612 13.1794 53.096V46.459H17.1958Z" fill="black" stroke="black" stroke-width="2" stroke-linecap="round" stroke-linejoin="round"/>
</svg>
