<svg width="112" height="95" viewBox="0 0 112 95" fill="none" xmlns="http://www.w3.org/2000/svg">
<mask id="path-1-inside-1" fill="white">
<rect width="96.8493" height="85.7808" rx="2"/>
</mask>
<rect width="96.8493" height="85.7808" rx="2" fill="white" stroke="black" stroke-width="6" mask="url(#path-1-inside-1)"/>
<path d="M8.44083 90.1712L1.38379 84.3972L94.7742 83.0137V0.691772L100.487 7.03912C100.817 7.40637 101 7.88297 101 8.37705V88.6233C101 89.7278 100.105 90.6233 99.0002 90.6233H9.7073C9.24562 90.6233 8.79815 90.4635 8.44083 90.1712Z" fill="black" stroke="black" stroke-linecap="round" stroke-linejoin="round"/>
<path d="M67.595 8.30139H62.4607C62.3503 8.30139 62.2607 8.39093 62.2607 8.50139V13.6356C62.2607 13.7461 62.3503 13.8356 62.4607 13.8356H67.595C67.7054 13.8356 67.795 13.7461 67.795 13.6356V8.50139C67.795 8.39093 67.7054 8.30139 67.595 8.30139Z" fill="black"/>
<path d="M77.2796 8.30139H72.1453C72.0349 8.30139 71.9453 8.39093 71.9453 8.50139V13.6356C71.9453 13.7461 72.0349 13.8356 72.1453 13.8356H77.2796C77.39 13.8356 77.4796 13.7461 77.4796 13.6356V8.50139C77.4796 8.39093 77.39 8.30139 77.2796 8.30139Z" fill="black"/>
<path d="M86.9641 8.30139H81.8299C81.7194 8.30139 81.6299 8.39093 81.6299 8.50139V13.6356C81.6299 13.7461 81.7194 13.8356 81.8299 13.8356H86.9641C87.0746 13.8356 87.1641 13.7461 87.1641 13.6356V8.50139C87.1641 8.39093 87.0746 8.30139 86.9641 8.30139Z" fill="black"/>
<line x1="12" y1="36" x2="72" y2="36" stroke="black" stroke-width="2"/>
<line x1="12" y1="52" x2="42" y2="52" stroke="black" stroke-width="2"/>
<line x1="12" y1="44" x2="72" y2="44" stroke="black" stroke-width="2"/>
<path d="M4.15039 19.3699L94.0819 19.3699" stroke="black" stroke-width="2" stroke-linecap="round" stroke-linejoin="round"/>
<rect x="76" y="64" width="35" height="30" rx="3" fill="white" stroke="black" stroke-width="2"/>
<path d="M89.7439 84.555C90.0488 84.8403 90.4581 85 90.8843 85C91.3105 85 91.7199 84.8403 92.0248 84.555L101.5 75.6906C101.655 75.5474 101.779 75.3763 101.865 75.1871C101.951 74.9979 101.997 74.7943 102 74.588C102.003 74.3818 101.964 74.177 101.884 73.9853C101.804 73.7937 101.686 73.6191 101.536 73.4715C101.385 73.3239 101.206 73.2063 101.008 73.1254C100.81 73.0444 100.597 73.0019 100.382 73.0001C100.166 72.9983 99.953 73.0373 99.7535 73.1148C99.554 73.1924 99.3725 73.307 99.2195 73.452L90.8847 81.2496L86.7655 77.3962C86.4551 77.1095 86.0389 76.9521 85.6078 76.9583C85.1767 76.9646 84.7657 77.134 84.4644 77.4296C84.1632 77.7252 83.9963 78.123 84.0001 78.5362C84.0038 78.9493 84.178 79.3442 84.4846 79.6347L89.7439 84.555Z" fill="black"/>
</svg>
