<svg width="58" height="110" viewBox="0 0 58 110" fill="none" xmlns="http://www.w3.org/2000/svg">
<path d="M0.502289 4.12709C0.925595 1.73965 3.00082 0 5.4255 0H53C55.7614 0 58 2.23858 58 5V104.04C58 106.801 55.7614 109.04 53 109.04H6.17396C3.43611 109.04 1.20742 106.838 1.17433 104.1L0.00568511 7.43027C0.00190341 7.11745 0.0274894 6.80496 0.0821066 6.49692L0.502289 4.12709Z" fill="black"/>
<path d="M0 7.32001C0 4.55858 2.23858 2.32001 5 2.32001H47.2C49.9614 2.32001 52.2 4.55858 52.2 7.32001V104.04C52.2 106.801 49.9614 109.04 47.2 109.04H5.00001C2.23858 109.04 0 106.801 0 104.04V7.32001Z" fill="white"/>
<path fill-rule="evenodd" clip-rule="evenodd" d="M5 4.32001H47.2C48.8569 4.32001 50.2 5.66316 50.2 7.32001V104.04C50.2 105.697 48.8569 107.04 47.2 107.04H5.00001C3.34315 107.04 2 105.697 2 104.04V7.32001C2 5.66315 3.34315 4.32001 5 4.32001ZM0 7.32001C0 4.55858 2.23858 2.32001 5 2.32001H47.2C49.9614 2.32001 52.2 4.55858 52.2 7.32001V104.04C52.2 106.801 49.9614 109.04 47.2 109.04H5.00001C2.23858 109.04 0 106.801 0 104.04V7.32001ZM44.4 17.08L6.64001 17.08L6.64001 82.68H8.28003V18.72H44.4V17.08ZM44.4 82.68H10.28V20.72H44.4V82.68ZM6.64001 15.08C5.53545 15.08 4.64001 15.9754 4.64001 17.08V82.68C4.64001 83.7846 5.53544 84.68 6.64001 84.68H44.4C45.5046 84.68 46.4 83.7846 46.4 82.68V17.08C46.4 15.9754 45.5046 15.08 44.4 15.08H6.64001ZM20.88 95.7C20.88 92.8171 23.2171 90.48 26.1 90.48C28.9829 90.48 31.32 92.8171 31.32 95.7C31.32 98.5829 28.9829 100.92 26.1 100.92C23.2171 100.92 20.88 98.5829 20.88 95.7ZM23.2 9.28003C22.5593 9.28003 22.04 8.76068 22.04 8.12003C22.04 7.47938 22.5593 6.96003 23.2 6.96003H32.48C33.1206 6.96003 33.64 7.47938 33.64 8.12003C33.64 8.76068 33.1206 9.28003 32.48 9.28003H23.2Z" fill="black"/>
</svg>
