<svg width="45" height="103" viewBox="0 0 45 103" fill="none" xmlns="http://www.w3.org/2000/svg">
<path d="M42.8818 56.3448L6.19055 56.2896C5.06535 56.2879 4.15352 55.3733 4.15522 54.2481L4.16241 49.4742C4.16651 46.7508 5.23034 44.1922 7.15749 42.2709L12.3347 37.1093L12.3521 25.523C12.3595 20.6023 14.018 15.7493 17.0244 11.8564L23.0004 4.11541C23.7724 3.11368 25.4643 3.11623 26.2333 4.12028L32.186 11.8833C35.1766 15.7812 36.8203 20.6392 36.8129 25.5599L36.7955 37.1461L41.9571 42.3233C43.8784 44.2505 44.9345 46.8123 44.9304 49.5356L44.9232 54.3095C44.9215 55.4388 44.007 56.3465 42.8818 56.3448Z" fill="black"/>
<path d="M33.7155 61.4861C31.461 61.4827 29.6414 59.6536 29.6448 57.4032L29.654 51.288C29.6574 49.0376 31.4825 47.2139 33.737 47.2173C35.9914 47.2207 37.811 49.0499 37.8076 51.3003L37.7984 57.4155C37.795 59.6699 35.9699 61.4895 33.7155 61.4861Z" fill="black"/>
<path d="M13.3317 61.4555C11.0772 61.4521 9.25762 59.6229 9.26101 57.3725L9.27022 51.2573C9.27362 49.0069 11.0987 47.1833 13.3532 47.1867C15.6076 47.1901 17.4272 49.0192 17.4238 51.2696L17.4146 57.3848C17.4112 59.6393 15.5861 61.4589 13.3317 61.4555Z" fill="black"/>
<mask id="path-4-inside-1" fill="white">
<path fill-rule="evenodd" clip-rule="evenodd" d="M39.3378 53.0099L35.2607 53.0037L35.2546 57.0804C35.2512 59.3349 33.4261 61.1545 31.1716 61.1511C28.9172 61.1477 27.0976 59.3185 27.101 57.0681L27.1071 52.9915L14.8769 52.973L14.8708 57.0497C14.8674 59.3042 13.0423 61.1238 10.7878 61.1204C8.53335 61.117 6.71377 59.2878 6.71717 57.0374L6.72331 52.9607L2.6466 52.9546C1.5214 52.9529 0.609576 52.0383 0.611272 50.9131L0.618465 46.1392C0.622568 43.4159 1.68639 40.8573 3.61354 38.9359L8.79072 33.7743L8.80818 22.188C8.81559 17.2673 10.474 12.4144 13.4804 8.52146L19.4564 0.780452C20.2285 -0.22128 21.9203 -0.218731 22.6894 0.785323L28.642 8.54838C31.6326 12.4462 33.2764 17.3042 33.269 22.2249L33.2515 33.8112L38.4131 38.9883C40.3345 40.9155 41.3906 43.4773 41.3865 46.2006L41.3793 50.9746C41.3776 52.1038 40.463 53.0116 39.3378 53.0099Z"/>
</mask>
<path fill-rule="evenodd" clip-rule="evenodd" d="M39.3378 53.0099L35.2607 53.0037L35.2546 57.0804C35.2512 59.3349 33.4261 61.1545 31.1716 61.1511C28.9172 61.1477 27.0976 59.3185 27.101 57.0681L27.1071 52.9915L14.8769 52.973L14.8708 57.0497C14.8674 59.3042 13.0423 61.1238 10.7878 61.1204C8.53335 61.117 6.71377 59.2878 6.71717 57.0374L6.72331 52.9607L2.6466 52.9546C1.5214 52.9529 0.609576 52.0383 0.611272 50.9131L0.618465 46.1392C0.622568 43.4159 1.68639 40.8573 3.61354 38.9359L8.79072 33.7743L8.80818 22.188C8.81559 17.2673 10.474 12.4144 13.4804 8.52146L19.4564 0.780452C20.2285 -0.22128 21.9203 -0.218731 22.6894 0.785323L28.642 8.54838C31.6326 12.4462 33.2764 17.3042 33.269 22.2249L33.2515 33.8112L38.4131 38.9883C40.3345 40.9155 41.3906 43.4773 41.3865 46.2006L41.3793 50.9746C41.3776 52.1038 40.463 53.0116 39.3378 53.0099Z" fill="white"/>
<path d="M35.2607 53.0037L35.2637 51.0037L33.2637 51.0007L33.2607 53.0007L35.2607 53.0037ZM39.3378 53.0099L39.3408 51.0099L39.3378 53.0099ZM35.2546 57.0804L37.2546 57.0834L35.2546 57.0804ZM27.101 57.0681L29.101 57.0712L27.101 57.0681ZM27.1071 52.9915L29.1071 52.9945L29.1101 50.9945L27.1101 50.9915L27.1071 52.9915ZM14.8769 52.973L14.8799 50.973L12.8799 50.97L12.8769 52.97L14.8769 52.973ZM6.72331 52.9607L8.72331 52.9638L8.72632 50.9638L6.72632 50.9607L6.72331 52.9607ZM0.611272 50.9131L2.61127 50.9161L0.611272 50.9131ZM0.618465 46.1392L-1.38153 46.1362L0.618465 46.1392ZM3.61354 38.9359L5.02562 40.3523L5.02562 40.3523L3.61354 38.9359ZM8.79072 33.7743L10.2028 35.1907L10.7895 34.6057L10.7907 33.7773L8.79072 33.7743ZM8.80818 22.188L10.8082 22.1911L8.80818 22.188ZM13.4804 8.52146L15.0633 9.74391L15.0635 9.74363L13.4804 8.52146ZM19.4564 0.780452L21.0396 2.00262L21.0406 2.00133L19.4564 0.780452ZM22.6894 0.785323L21.1016 2.00142L21.1022 2.00231L22.6894 0.785323ZM28.642 8.54838L27.0549 9.76538L27.0552 9.76582L28.642 8.54838ZM33.2515 33.8112L31.2515 33.8082L31.2503 34.6366L31.8352 35.2232L33.2515 33.8112ZM38.4131 38.9883L36.9968 40.4004L36.9968 40.4004L38.4131 38.9883ZM35.2577 55.0037L39.3348 55.0099L39.3408 51.0099L35.2637 51.0037L35.2577 55.0037ZM37.2546 57.0834L37.2607 53.0068L33.2607 53.0007L33.2546 57.0774L37.2546 57.0834ZM31.1686 63.1511C34.5277 63.1561 37.2495 60.4425 37.2546 57.0834L33.2546 57.0774C33.2529 58.2273 32.3246 59.1528 31.1746 59.1511L31.1686 63.1511ZM25.101 57.0651C25.0959 60.4188 27.8083 63.146 31.1686 63.1511L31.1746 59.1511C30.026 59.1494 29.0992 58.2183 29.101 57.0712L25.101 57.0651ZM25.1071 52.9884L25.101 57.0651L29.101 57.0712L29.1071 52.9945L25.1071 52.9884ZM14.8739 54.973L27.1041 54.9915L27.1101 50.9915L14.8799 50.973L14.8739 54.973ZM12.8769 52.97L12.8708 57.0467L16.8708 57.0527L16.8769 52.976L12.8769 52.97ZM12.8708 57.0467C12.869 58.1966 11.9407 59.1221 10.7908 59.1204L10.7848 63.1204C14.1438 63.1254 16.8657 60.4118 16.8708 57.0527L12.8708 57.0467ZM10.7908 59.1204C9.64224 59.1187 8.71544 58.1876 8.71716 57.0405L4.71717 57.0344C4.71211 60.3881 7.42447 63.1153 10.7848 63.1204L10.7908 59.1204ZM8.71716 57.0405L8.72331 52.9638L4.72331 52.9577L4.71717 57.0344L8.71716 57.0405ZM2.64359 54.9546L6.7203 54.9607L6.72632 50.9607L2.64961 50.9546L2.64359 54.9546ZM-1.38873 50.9101C-1.39209 53.1399 0.413822 54.9512 2.64359 54.9546L2.64961 50.9546C2.64108 50.9546 2.63774 50.9532 2.63589 50.9525C2.6327 50.9511 2.6278 50.9482 2.62269 50.9431C2.61759 50.938 2.61472 50.9331 2.61337 50.9299C2.61259 50.928 2.61126 50.9247 2.61127 50.9161L-1.38873 50.9101ZM-1.38153 46.1362L-1.38873 50.9101L2.61127 50.9161L2.61846 46.1422L-1.38153 46.1362ZM2.20146 37.5196C-0.101656 39.8157 -1.37663 42.8829 -1.38153 46.1362L2.61846 46.1422C2.62177 43.9489 3.47444 41.8988 5.02562 40.3523L2.20146 37.5196ZM7.37864 32.358L2.20146 37.5196L5.02562 40.3523L10.2028 35.1907L7.37864 32.358ZM6.80818 22.185L6.79072 33.7713L10.7907 33.7773L10.8082 22.1911L6.80818 22.185ZM11.8975 7.29901C8.62102 11.5416 6.81626 16.8235 6.80818 22.185L10.8082 22.1911C10.8149 17.7112 12.327 13.2871 15.0633 9.74391L11.8975 7.29901ZM17.8733 -0.441719L11.8973 7.29929L15.0635 9.74363L21.0396 2.00262L17.8733 -0.441719ZM24.2772 -0.430773C23.4529 -1.50697 22.2045 -1.96758 21.077 -1.96928C19.9496 -1.97098 18.6998 -1.51414 17.8723 -0.440422L21.0406 2.00133C21.0286 2.01686 21.0164 2.02822 21.007 2.03547C20.998 2.04242 20.9936 2.04407 20.9961 2.04296C20.9988 2.04175 21.0071 2.03846 21.0212 2.03554C21.0353 2.03261 21.0523 2.03069 21.071 2.03072C21.0897 2.03074 21.1067 2.03272 21.1209 2.03569C21.1349 2.03865 21.1432 2.04197 21.1459 2.04318C21.1484 2.04431 21.144 2.04264 21.135 2.03567C21.1256 2.02839 21.1135 2.01699 21.1016 2.00142L24.2772 -0.430773ZM30.2291 7.33139L24.2765 -0.431667L21.1022 2.00231L27.0549 9.76538L30.2291 7.33139ZM35.269 22.2279C35.2771 16.8666 33.4884 11.5794 30.2288 7.33095L27.0552 9.76582C29.7768 13.3131 31.2757 17.7418 31.269 22.2219L35.269 22.2279ZM35.2515 33.8142L35.269 22.2279L31.269 22.2219L31.2515 33.8082L35.2515 33.8142ZM39.8295 37.5763L34.6679 32.3991L31.8352 35.2232L36.9968 40.4004L39.8295 37.5763ZM43.3865 46.2036C43.3914 42.9504 42.1256 39.8794 39.8295 37.5763L36.9968 40.4004C38.5433 41.9516 39.3898 44.0043 39.3865 46.1976L43.3865 46.2036ZM43.3793 50.9776L43.3865 46.2036L39.3865 46.1976L39.3793 50.9715L43.3793 50.9776ZM39.3348 55.0099C41.562 55.0132 43.3759 53.214 43.3793 50.9776L39.3793 50.9715C39.3793 50.982 39.3776 50.986 39.3769 50.9875C39.3757 50.9903 39.3732 50.9946 39.3688 50.999C39.3643 51.0035 39.3598 51.0061 39.3566 51.0075C39.3547 51.0083 39.3506 51.0099 39.3408 51.0099L39.3348 55.0099Z" fill="black" mask="url(#path-4-inside-1)"/>
<ellipse cx="21" cy="21.5" rx="4" ry="4.5" fill="black"/>
<line x1="4.85596" y1="82.5176" x2="4.85596" y2="100.564" stroke="black" stroke-width="3" stroke-linecap="round"/>
<line x1="22.0762" y1="72.9509" x2="22.0762" y2="90.9977" stroke="black" stroke-width="3" stroke-linecap="round"/>
<line x1="39.2959" y1="82.5176" x2="39.2959" y2="100.564" stroke="black" stroke-width="3" stroke-linecap="round"/>
</svg>
