<svg width="82" height="102" viewBox="0 0 82 102" fill="none" xmlns="http://www.w3.org/2000/svg">
<path d="M77.2258 4.52832L3.0188 96.8462L7.41207 99.3588C7.71442 99.5317 8.05668 99.6227 8.40499 99.6227H77.9999C79.1045 99.6227 79.9999 98.7272 79.9999 97.6227V9.91789C79.9999 9.57009 79.9092 9.22829 79.7368 8.92625L77.2258 4.52832Z" fill="black"/>
<path d="M3.0188 96.8462L1.84968 95.9064C1.57468 96.2485 1.46333 96.6939 1.54498 97.1252C1.62663 97.5565 1.89309 97.9304 2.27411 98.1483L3.0188 96.8462ZM77.2258 4.52832L78.5285 3.78459C78.2824 3.35363 77.8391 3.07225 77.3444 3.03302C76.8497 2.99378 76.3676 3.20176 76.0567 3.58856L77.2258 4.52832ZM79.7368 8.92625L78.4341 9.66998L79.7368 8.92625ZM7.41207 99.3588L8.15676 98.0567H8.15676L7.41207 99.3588ZM4.18792 97.7859L78.395 5.46808L76.0567 3.58856L1.84968 95.9064L4.18792 97.7859ZM75.9232 5.27205L78.4341 9.66998L81.0394 8.18253L78.5285 3.78459L75.9232 5.27205ZM78.4999 9.91789V97.6227H81.4999V9.91789H78.4999ZM77.9999 98.1227H8.40499V101.123H77.9999V98.1227ZM8.15676 98.0567L3.76349 95.5441L2.27411 98.1483L6.66738 100.661L8.15676 98.0567ZM8.40499 98.1227C8.3179 98.1227 8.23234 98.0999 8.15676 98.0567L6.66738 100.661C7.1965 100.963 7.79547 101.123 8.40499 101.123V98.1227ZM78.4999 97.6227C78.4999 97.8988 78.2761 98.1227 77.9999 98.1227V101.123C79.9329 101.123 81.4999 99.5557 81.4999 97.6227H78.4999ZM78.4341 9.66998C78.4773 9.74549 78.4999 9.83093 78.4999 9.91789H81.4999C81.4999 9.30924 81.3412 8.7111 81.0394 8.18252L78.4341 9.66998Z" fill="black"/>
<path d="M24.8354 1.50977L1.50781 23.8849V94.6041C1.50781 95.7087 2.40324 96.6041 3.50781 96.6041H74.9795C76.0841 96.6041 76.9795 95.7087 76.9795 94.6041V3.50977C76.9795 2.4052 76.0841 1.50977 74.9795 1.50977H24.8354Z" fill="white" stroke="black" stroke-width="3"/>
<line x1="41.5" y1="64.5" x2="66.5" y2="64.5" stroke="black" stroke-width="3" stroke-linecap="round"/>
<line x1="41.5" y1="44.5" x2="66.5" y2="44.5" stroke="black" stroke-width="3" stroke-linecap="round"/>
<path d="M17.7439 51.555C18.0488 51.8403 18.4581 52 18.8843 52C19.3105 52 19.7199 51.8403 20.0248 51.555L29.5004 42.6906C29.6554 42.5474 29.7793 42.3763 29.865 42.1871C29.9507 41.9979 29.9965 41.7943 29.9998 41.588C30.0031 41.3818 29.9637 41.177 29.8841 40.9853C29.8044 40.7937 29.686 40.6191 29.5356 40.4715C29.3852 40.3239 29.2058 40.2063 29.0078 40.1254C28.8098 40.0444 28.597 40.0019 28.3817 40.0001C28.1665 39.9983 27.953 40.0373 27.7535 40.1148C27.554 40.1924 27.3725 40.307 27.2195 40.452L18.8847 48.2496L14.7655 44.3962C14.4551 44.1095 14.0389 43.9521 13.6078 43.9583C13.1767 43.9646 12.7657 44.134 12.4644 44.4296C12.1632 44.7252 11.9963 45.123 12.0001 45.5362C12.0038 45.9493 12.178 46.3442 12.4846 46.6347L17.7439 51.555Z" fill="black"/>
<path d="M17.7439 71.555C18.0488 71.8403 18.4581 72 18.8843 72C19.3105 72 19.7199 71.8403 20.0248 71.555L29.5004 62.6906C29.6554 62.5474 29.7793 62.3763 29.865 62.1871C29.9507 61.9979 29.9965 61.7943 29.9998 61.588C30.0031 61.3818 29.9637 61.177 29.8841 60.9853C29.8044 60.7937 29.686 60.6191 29.5356 60.4715C29.3852 60.3239 29.2058 60.2063 29.0078 60.1254C28.8098 60.0444 28.597 60.0019 28.3817 60.0001C28.1665 59.9983 27.953 60.0373 27.7535 60.1148C27.554 60.1924 27.3725 60.307 27.2195 60.452L18.8847 68.2496L14.7655 64.3962C14.4551 64.1095 14.0389 63.9521 13.6078 63.9583C13.1767 63.9646 12.7657 64.134 12.4644 64.4296C12.1632 64.7252 11.9963 65.123 12.0001 65.5362C12.0038 65.9493 12.178 66.3442 12.4846 66.6347L17.7439 71.555Z" fill="black"/>
<path d="M0 25.6604H24.6604C25.2127 25.6604 25.6604 25.2127 25.6604 24.6604V0" stroke="black" stroke-width="2"/>
</svg>
