<svg width="150" height="68" viewBox="0 0 150 68" fill="none" xmlns="http://www.w3.org/2000/svg">
<path d="M74.9999 2C56.7746 2 42 16.7746 42 34.9999C42 53.2253 56.7746 67.9999 74.9999 67.9999C93.2253 67.9999 108 53.2253 108 34.9999C107.981 16.7827 93.2173 2.01947 74.9999 2ZM74.9999 63.2856C59.3782 63.2856 46.7142 50.6217 46.7142 34.9999C46.7142 19.3782 59.3782 6.71424 74.9999 6.71424C90.6217 6.71424 103.286 19.3782 103.286 34.9999C103.269 50.6148 90.6148 63.2688 74.9999 63.2856Z" fill="black"/>
<line y1="32.5" x2="147" y2="32.5" stroke="black" stroke-width="3"/>
<mask id="path-3-inside-1" fill="white">
<rect y="27" width="11" height="11" rx="1"/>
</mask>
<rect y="27" width="11" height="11" rx="1" fill="#F6F0E1" stroke="black" stroke-width="4" mask="url(#path-3-inside-1)"/>
<path d="M148 32.5L136.75 26.0048L136.75 38.9952L148 32.5Z" fill="#F6F0E1" stroke="black" stroke-width="2"/>
<path d="M71.9999 0C53.7746 0 39 14.7746 39 32.9999C39 51.2253 53.7746 65.9999 71.9999 65.9999C90.2253 65.9999 105 51.2253 105 32.9999C104.981 14.7827 90.2173 0.019474 71.9999 0ZM71.9999 61.2856C56.3782 61.2856 43.7142 48.6217 43.7142 32.9999C43.7142 17.3782 56.3782 4.71424 71.9999 4.71424C87.6217 4.71424 100.286 17.3782 100.286 32.9999C100.269 48.6148 87.6148 61.2688 71.9999 61.2856Z" fill="black"/>
<circle cx="72" cy="33" r="30" fill="#F6F0E1"/>
<path d="M74.6276 21C73.7913 21 73.1134 21.6779 73.1134 22.5142V33.1134H62.5142C61.6779 33.1134 61 33.7914 61 34.6277C61 35.4639 61.6779 36.1418 62.5142 36.1418H74.6276C75.4638 36.1418 76.1418 35.4638 76.1418 34.6276V22.5142C76.1418 21.6779 75.4638 21 74.6276 21Z" fill="black"/>
</svg>
