<svg width="61" height="68" viewBox="0 0 61 68" fill="none" xmlns="http://www.w3.org/2000/svg">
<line x1="7.69304" y1="12.4244" x2="23.793" y2="33.391" stroke="black" stroke-width="2"/>
<line x1="53.607" y1="13.7406" x2="33.607" y2="33.7406" stroke="black" stroke-width="2"/>
<line x1="30.1333" y1="10.7334" x2="30.1333" y2="32.9667" stroke="black" stroke-width="2"/>
<line x1="3.29289" y1="55.2929" x2="24.2929" y2="34.2929" stroke="black" stroke-width="2"/>
<line x1="56.1928" y1="56.3736" x2="35.1928" y2="35.3736" stroke="black" stroke-width="2"/>
<line y1="-1" x2="22.2333" y2="-1" transform="matrix(-4.37114e-08 -1 -1 4.37114e-08 29.1333 55.9666)" stroke="black" stroke-width="2"/>
<rect x="15" y="29" width="28" height="10" fill="black"/>
<rect x="17.5" y="31.2856" width="23" height="5.42857" stroke="#F6F0E1"/>
<rect x="3.5" y="3.5" width="10" height="10" fill="#F6F0E1" stroke="black" stroke-width="3"/>
<rect x="1" y="1" width="12" height="12" fill="#F6F0E1" stroke="black" stroke-width="2"/>
<rect x="26.5" y="3.5" width="10" height="10" fill="#F6F0E1" stroke="black" stroke-width="3"/>
<rect x="24" y="1" width="12" height="12" fill="#F6F0E1" stroke="black" stroke-width="2"/>
<rect x="49.5" y="3.5" width="10" height="10" fill="#F6F0E1" stroke="black" stroke-width="3"/>
<rect x="47" y="1" width="12" height="12" fill="#F6F0E1" stroke="black" stroke-width="2"/>
<rect x="3.5" y="55.5" width="10" height="11" fill="#F6F0E1" stroke="black" stroke-width="3"/>
<rect x="1" y="55" width="12" height="11" fill="#F6F0E1" stroke="black" stroke-width="2"/>
<rect x="26.5" y="55.5" width="10" height="11" fill="#F6F0E1" stroke="black" stroke-width="3"/>
<rect x="24" y="55" width="12" height="11" fill="#F6F0E1" stroke="black" stroke-width="2"/>
<rect x="49.5" y="55.5" width="10" height="11" fill="#F6F0E1" stroke="black" stroke-width="3"/>
<rect x="47" y="55" width="12" height="11" fill="#F6F0E1" stroke="black" stroke-width="2"/>
</svg>
