<svg width="75" height="67" viewBox="0 0 75 67" fill="none" xmlns="http://www.w3.org/2000/svg">
<mask id="path-1-inside-1" fill="white">
<rect width="70.5343" height="62.4732" rx="2"/>
</mask>
<rect width="70.5343" height="62.4732" rx="2" fill="#F6F0E1" stroke="black" stroke-width="6" mask="url(#path-1-inside-1)"/>
<path d="M45.3102 25.4899L32.6696 38.1304L27.6898 33.1506L26 34.8404L32.6696 41.5101L47 27.1797L45.3102 25.4899Z" fill="black"/>
<path d="M6.00847 65.5485L1.01904 61.4662L69.0343 60.4586V0.504395L73.0552 4.9721C73.3857 5.33935 73.5686 5.81595 73.5686 6.31003V64.0005C73.5686 65.1051 72.6732 66.0005 71.5686 66.0005H7.27495C6.81326 66.0005 6.3658 65.8408 6.00847 65.5485Z" fill="black" stroke="black" stroke-linecap="round" stroke-linejoin="round"/>
<path d="M49.1743 6.0459H45.5438C45.4333 6.0459 45.3438 6.13544 45.3438 6.2459V9.87643C45.3438 9.98689 45.4333 10.0764 45.5437 10.0764H49.1743C49.2847 10.0764 49.3743 9.98689 49.3743 9.87643V6.2459C49.3743 6.13544 49.2847 6.0459 49.1743 6.0459Z" fill="black"/>
<path d="M56.2129 6.0459H52.5823C52.4719 6.0459 52.3823 6.13544 52.3823 6.2459V9.87643C52.3823 9.98689 52.4719 10.0764 52.5823 10.0764H56.2129C56.3233 10.0764 56.4129 9.98689 56.4129 9.87643V6.2459C56.4129 6.13544 56.3233 6.0459 56.2129 6.0459Z" fill="black"/>
<path d="M63.2802 6.0459H59.6497C59.5393 6.0459 59.4497 6.13544 59.4497 6.2459V9.87643C59.4497 9.98689 59.5392 10.0764 59.6497 10.0764H63.2802C63.3907 10.0764 63.4802 9.98689 63.4802 9.87643V6.2459C63.4802 6.13544 63.3907 6.0459 63.2802 6.0459Z" fill="black"/>
<path d="M3.03516 14.1064L68.5313 14.1064" stroke="black" stroke-width="2" stroke-linecap="round" stroke-linejoin="round"/>
</svg>
