<svg width="78" height="66" viewBox="0 0 78 66" fill="none" xmlns="http://www.w3.org/2000/svg">
<g clip-path="url(#clip0)">
<path fill-rule="evenodd" clip-rule="evenodd" d="M24.6875 9.28125C23.5829 9.28125 22.6875 10.1767 22.6875 11.2812V23.7812C22.6875 24.8858 23.5829 25.7812 24.6875 25.7812H53.6875C54.7921 25.7812 55.6875 24.8858 55.6875 23.7812V11.2812C55.6875 10.1767 54.7921 9.28125 53.6875 9.28125H24.6875ZM2.0625 49.4375C2.0625 48.3329 2.95793 47.4375 4.0625 47.4375H33.0625C34.1671 47.4375 35.0625 48.3329 35.0625 49.4375V61.9375C35.0625 63.0421 34.1671 63.9375 33.0625 63.9375H4.0625C2.95793 63.9375 2.0625 63.0421 2.0625 61.9375V49.4375ZM42.2812 49.4375C42.2812 48.3329 43.1767 47.4375 44.2812 47.4375H73.2812C74.3858 47.4375 75.2812 48.3329 75.2812 49.4375V61.9375C75.2812 63.0421 74.3858 63.9375 73.2812 63.9375H44.2812C43.1767 63.9375 42.2812 63.0421 42.2812 61.9375V49.4375Z" fill="white"/>
<path fill-rule="evenodd" clip-rule="evenodd" d="M77.3438 49.9556V52.6929V61.5132C77.3426 62.7026 76.8727 63.843 76.0372 64.6841C75.2017 65.5251 74.0689 65.9982 72.8874 65.9994H45.3941C44.2126 65.9982 43.0798 65.5251 42.2444 64.6841C41.4089 63.843 40.939 62.7026 40.9378 61.5132V49.9556C40.9762 49.4225 41.0581 48.8936 41.1825 48.374L43.7823 40.5088C44.0148 39.8222 44.4562 39.2268 45.0438 38.807C45.6313 38.3872 46.3353 38.1643 47.0558 38.1699H58.6876V35.2805H18.6562V38.1699H30.2879C31.0078 38.1646 31.7111 38.3875 32.298 38.807C32.885 39.2265 33.326 39.8214 33.5584 40.5072L36.1265 48.3786V48.3923C36.3112 48.8925 36.4059 49.4219 36.4059 49.9556V61.5132C36.4047 62.7026 35.9349 63.843 35.0994 64.6841C34.2639 65.5251 33.1311 65.9982 31.9496 65.9994H4.45633C3.27481 65.9982 2.14202 65.5251 1.30655 64.6841C0.471088 63.843 0.00119972 62.7026 0 61.5132V49.9556C0.038422 49.4225 0.12027 48.8936 0.24472 48.374L2.8445 40.5088C3.07703 39.8222 3.51839 39.2268 4.10597 38.807C4.69355 38.3872 5.39751 38.1643 6.11801 38.1699H16.3902V34.1399C16.3902 33.8374 16.5096 33.5473 16.7221 33.3334C16.9345 33.1195 17.2227 32.9994 17.5232 32.9994H37.5389V27.8289H24.9252C23.7437 27.8277 22.6109 27.3546 21.7755 26.5136C20.94 25.6725 20.4701 24.5321 20.4689 23.3427V11.7851C20.5073 11.252 20.5892 10.7231 20.7136 10.2035L23.3134 2.33826C23.5459 1.65173 23.9873 1.05633 24.5749 0.636511C25.1624 0.216694 25.8664 -0.00622636 26.5869 -0.000629557H50.7568C51.4767 -0.00592337 52.18 0.216981 52.7669 0.636497C53.3539 1.05601 53.7949 1.65086 54.0273 2.33674L56.5954 10.2081V10.2218C56.7801 10.722 56.8748 11.2514 56.8748 11.7851V23.3427C56.8736 24.5321 56.4038 25.6725 55.5683 26.5136C54.7328 27.3546 53.6 27.8277 52.4185 27.8289H39.8048V32.9994H59.8206C60.121 32.9994 60.4092 33.1195 60.6217 33.3334C60.8342 33.5473 60.9535 33.8374 60.9535 34.1399V38.1699H71.2257C71.9456 38.1646 72.6489 38.3875 73.2358 38.807C73.8228 39.2265 74.2638 39.8214 74.4962 40.5072L77.0643 48.3786V48.3923C77.249 48.8925 77.3437 49.4219 77.3438 49.9556ZM34.14 61.5132V49.9556C34.1392 49.371 33.9082 48.8106 33.4976 48.3973C33.087 47.9839 32.5303 47.7513 31.9496 47.7505H4.45633C3.87564 47.7513 3.31897 47.9839 2.90837 48.3973C2.49776 48.8106 2.26673 49.371 2.26593 49.9556V61.5132C2.26673 62.0978 2.49776 62.6582 2.90837 63.0715C3.31897 63.4849 3.87564 63.7174 4.45633 63.7183H31.9496C32.5303 63.7174 33.087 63.4849 33.4976 63.0715C33.9082 62.6582 34.1392 62.0978 34.14 61.5132ZM23.3773 24.901C23.7879 25.3144 24.3445 25.5469 24.9252 25.5478H52.4185C52.9992 25.5469 53.5559 25.3144 53.9665 24.901C54.3771 24.4877 54.6081 23.9273 54.6089 23.3427V11.7851C54.6081 11.2005 54.3771 10.6401 53.9665 10.2268C53.5559 9.8134 52.9992 9.58082 52.4185 9.58001H24.9252C24.3445 9.58082 23.7879 9.8134 23.3773 10.2268C22.9667 10.6401 22.7356 11.2005 22.7348 11.7851V23.3427C22.7356 23.9273 22.9667 24.4877 23.3773 24.901ZM74.4354 63.0715C74.846 62.6582 75.077 62.0978 75.0778 61.5132V49.9556C75.077 49.371 74.846 48.8106 74.4354 48.3973C74.0248 47.9839 73.4681 47.7513 72.8874 47.7505H45.3941C44.8134 47.7513 44.2568 47.9839 43.8462 48.3973C43.4356 48.8106 43.2045 49.371 43.2037 49.9556V61.5132C43.2045 62.0978 43.4356 62.6582 43.8462 63.0715C44.2568 63.4849 44.8134 63.7174 45.3941 63.7183H72.8874C73.4681 63.7174 74.0248 63.4849 74.4354 63.0715ZM30.8735 52.1728V61.2972C30.8735 61.5997 30.7541 61.8898 30.5416 62.1037C30.3292 62.3176 30.041 62.4378 29.7405 62.4378H4.66422C4.36373 62.4378 4.07556 62.3176 3.86309 62.1037C3.65061 61.8898 3.53125 61.5997 3.53125 61.2972V52.1728C3.53125 51.8703 3.65061 51.5802 3.86309 51.3663C4.07556 51.1524 4.36373 51.0322 4.66422 51.0322H29.7405C30.041 51.0322 30.3292 51.1524 30.5416 51.3663C30.7541 51.5802 30.8735 51.8703 30.8735 52.1728ZM20.2991 54.758V53.3133H18.0332V54.758C18.0332 55.0605 18.1526 55.3506 18.365 55.5645C18.5775 55.7784 18.8657 55.8986 19.1662 55.8986C19.4666 55.8986 19.7548 55.7784 19.9673 55.5645C20.1798 55.3506 20.2991 55.0605 20.2991 54.758ZM12.746 54.758V53.3133H10.4801V54.758C10.4801 55.0605 10.5995 55.3506 10.8119 55.5645C11.0244 55.7784 11.3126 55.8986 11.6131 55.8986C11.9135 55.8986 12.2017 55.7784 12.4142 55.5645C12.6267 55.3506 12.746 55.0605 12.746 54.758ZM5.79718 60.1567H28.6075V53.3133H22.5651V54.758C22.5651 55.6655 22.207 56.5358 21.5696 57.1775C20.9321 57.8192 20.0676 58.1797 19.1662 58.1797C18.2647 58.1797 17.4002 57.8192 16.7628 57.1775C16.1254 56.5358 15.7673 55.6655 15.7673 54.758V53.3133H15.012V54.758C15.012 55.6655 14.6539 56.5358 14.0165 57.1775C13.379 57.8192 12.5145 58.1797 11.6131 58.1797C10.7116 58.1797 9.8471 57.8192 9.20968 57.1775C8.57227 56.5358 8.21417 55.6655 8.21417 54.758V53.3133H5.79718V60.1567ZM47.6017 51.0322C47.3012 51.0322 47.0131 51.1524 46.8006 51.3663C46.5881 51.5802 46.4688 51.8703 46.4688 52.1728V61.2972C46.4688 61.5997 46.5881 61.8898 46.8006 62.1037C47.0131 62.3176 47.3012 62.4378 47.6017 62.4378H72.678C72.9785 62.4378 73.2667 62.3176 73.4791 62.1037C73.6916 61.8898 73.811 61.5997 73.811 61.2972V52.1728C73.811 51.8703 73.6916 51.5802 73.4791 51.3663C73.2667 51.1524 72.9785 51.0322 72.678 51.0322H47.6017ZM63.2366 53.3133V54.758C63.2366 55.0605 63.1173 55.3506 62.9048 55.5645C62.6923 55.7784 62.4041 55.8986 62.1037 55.8986C61.8032 55.8986 61.515 55.7784 61.3025 55.5645C61.0901 55.3506 60.9707 55.0605 60.9707 54.758V53.3133H63.2366ZM55.6835 53.3133V54.758C55.6835 55.0605 55.5642 55.3506 55.3517 55.5645C55.1392 55.7784 54.851 55.8986 54.5506 55.8986C54.2501 55.8986 53.9619 55.7784 53.7494 55.5645C53.537 55.3506 53.4176 55.0605 53.4176 54.758V53.3133H55.6835ZM71.545 60.1567H48.7347V53.3133H51.1517V54.758C51.1517 55.6655 51.5098 56.5358 52.1472 57.1775C52.7846 57.8192 53.6491 58.1797 54.5506 58.1797C55.452 58.1797 56.3165 57.8192 56.9539 57.1775C57.5914 56.5358 57.9495 55.6655 57.9495 54.758V53.3133H58.7048V54.758C58.7048 55.6655 59.0629 56.5358 59.7003 57.1775C60.3377 57.8192 61.2022 58.1797 62.1037 58.1797C63.0051 58.1797 63.8696 57.8192 64.507 57.1775C65.1445 56.5358 65.5026 55.6655 65.5026 54.758V53.3133H71.545V60.1567ZM52.3422 13.0019V22.1263C52.3422 22.4288 52.2229 22.7189 52.0104 22.9328C51.7979 23.1467 51.5097 23.2669 51.2093 23.2669H26.133C25.8325 23.2669 25.5443 23.1467 25.3318 22.9328C25.1194 22.7189 25 22.4288 25 22.1263V13.0019C25 12.6994 25.1194 12.4093 25.3318 12.1954C25.5443 11.9815 25.8325 11.8613 26.133 11.8613H51.2093C51.5097 11.8613 51.7979 11.9815 52.0104 12.1954C52.2229 12.4093 52.3422 12.6994 52.3422 13.0019ZM41.7679 15.5871V14.1424H39.502V15.5871C39.502 15.8896 39.6213 16.1797 39.8338 16.3936C40.0463 16.6075 40.3344 16.7277 40.6349 16.7277C40.9354 16.7277 41.2236 16.6075 41.436 16.3936C41.6485 16.1797 41.7679 15.8896 41.7679 15.5871ZM34.2148 15.5871V14.1424H31.9489V15.5871C31.9489 15.8896 32.0682 16.1797 32.2807 16.3936C32.4932 16.6075 32.7813 16.7277 33.0818 16.7277C33.3823 16.7277 33.6705 16.6075 33.8829 16.3936C34.0954 16.1797 34.2148 15.8896 34.2148 15.5871ZM27.2659 20.9858H50.0763V14.1424H44.0338V15.5871C44.0338 16.4946 43.6757 17.3649 43.0383 18.0066C42.4009 18.6483 41.5364 19.0088 40.6349 19.0088C39.7335 19.0088 38.8689 18.6483 38.2315 18.0066C37.5941 17.3649 37.236 16.4946 37.236 15.5871V14.1424H36.4807V15.5871C36.4807 16.4946 36.1226 17.3649 35.4852 18.0066C34.8478 18.6483 33.9833 19.0088 33.0818 19.0088C32.1804 19.0088 31.3159 18.6483 30.6784 18.0066C30.041 17.3649 29.6829 16.4946 29.6829 15.5871V14.1424H27.2659V20.9858Z" fill="black"/>
</g>
<defs>
<clipPath id="clip0">
<rect width="77.3438" height="66" fill="white"/>
</clipPath>
</defs>
</svg>
