<svg width="78" height="66" viewBox="0 0 78 66" fill="none" xmlns="http://www.w3.org/2000/svg">
<g clip-path="url(#clip0)">
<rect x="2.0625" y="47.4375" width="33" height="16.5" rx="2" fill="white"/>
<rect x="42.2812" y="47.4375" width="33" height="16.5" rx="2" fill="white"/>
<rect x="22.6875" y="9.28125" width="33" height="16.5" rx="2" fill="white"/>
<path d="M30.8735 61.2972V52.1728C30.8735 51.8703 30.7541 51.5802 30.5416 51.3663C30.3292 51.1524 30.041 51.0322 29.7405 51.0322H4.66422C4.36373 51.0322 4.07556 51.1524 3.86309 51.3663C3.65061 51.5802 3.53125 51.8703 3.53125 52.1728V61.2972C3.53125 61.5997 3.65061 61.8898 3.86309 62.1037C4.07556 62.3176 4.36373 62.4378 4.66422 62.4378H29.7405C30.041 62.4378 30.3292 62.3176 30.5416 62.1037C30.7541 61.8898 30.8735 61.5997 30.8735 61.2972ZM20.2991 53.3133V54.758C20.2991 55.0605 20.1798 55.3506 19.9673 55.5645C19.7548 55.7784 19.4666 55.8986 19.1662 55.8986C18.8657 55.8986 18.5775 55.7784 18.365 55.5645C18.1526 55.3506 18.0332 55.0605 18.0332 54.758V53.3133H20.2991ZM12.746 53.3133V54.758C12.746 55.0605 12.6267 55.3506 12.4142 55.5645C12.2017 55.7784 11.9135 55.8986 11.6131 55.8986C11.3126 55.8986 11.0244 55.7784 10.8119 55.5645C10.5995 55.3506 10.4801 55.0605 10.4801 54.758V53.3133H12.746ZM28.6075 60.1567H5.79718V53.3133H8.21417V54.758C8.21417 55.6655 8.57227 56.5358 9.20968 57.1775C9.8471 57.8192 10.7116 58.1797 11.6131 58.1797C12.5145 58.1797 13.379 57.8192 14.0165 57.1775C14.6539 56.5358 15.012 55.6655 15.012 54.758V53.3133H15.7673V54.758C15.7673 55.6655 16.1254 56.5358 16.7628 57.1775C17.4002 57.8192 18.2647 58.1797 19.1662 58.1797C20.0676 58.1797 20.9321 57.8192 21.5696 57.1775C22.207 56.5358 22.5651 55.6655 22.5651 54.758V53.3133H28.6075V60.1567Z" fill="black"/>
<path d="M77.3438 52.6929V49.9556C77.3437 49.4219 77.249 48.8925 77.0643 48.3923C77.0643 48.3923 77.0643 48.3831 77.0643 48.3786L74.4962 40.5072C74.2638 39.8214 73.8228 39.2265 73.2358 38.807C72.6489 38.3875 71.9456 38.1646 71.2257 38.1699H60.9535V34.1399C60.9535 33.8374 60.8342 33.5473 60.6217 33.3334C60.4092 33.1195 60.121 32.9994 59.8206 32.9994H39.8048V27.8289H52.4185C53.6 27.8277 54.7328 27.3546 55.5683 26.5136C56.4038 25.6725 56.8736 24.5321 56.8748 23.3427V11.7851C56.8748 11.2514 56.7801 10.722 56.5954 10.2218C56.5954 10.2218 56.5954 10.2126 56.5954 10.2081L54.0273 2.33674C53.7949 1.65086 53.3539 1.05601 52.7669 0.636497C52.18 0.216981 51.4767 -0.00592337 50.7568 -0.000629557H26.5869C25.8664 -0.00622636 25.1624 0.216694 24.5749 0.636511C23.9873 1.05633 23.5459 1.65173 23.3134 2.33826L20.7136 10.2035C20.5892 10.7231 20.5073 11.252 20.4689 11.7851V23.3427C20.4701 24.5321 20.94 25.6725 21.7755 26.5136C22.6109 27.3546 23.7437 27.8277 24.9252 27.8289H37.5389V32.9994H17.5232C17.2227 32.9994 16.9345 33.1195 16.7221 33.3334C16.5096 33.5473 16.3902 33.8374 16.3902 34.1399V38.1699H6.11801C5.39751 38.1643 4.69355 38.3872 4.10597 38.807C3.51839 39.2268 3.07703 39.8222 2.8445 40.5088L0.24472 48.374C0.12027 48.8936 0.038422 49.4225 0 49.9556V61.5132C0.00119972 62.7026 0.471088 63.843 1.30655 64.6841C2.14202 65.5251 3.27481 65.9982 4.45633 65.9994H31.9496C33.1311 65.9982 34.2639 65.5251 35.0994 64.6841C35.9349 63.843 36.4047 62.7026 36.4059 61.5132V49.9556C36.4059 49.4219 36.3112 48.8925 36.1265 48.3923C36.1265 48.3923 36.1265 48.3831 36.1265 48.3786L33.5584 40.5072C33.326 39.8214 32.885 39.2265 32.298 38.807C31.7111 38.3875 31.0078 38.1646 30.2879 38.1699H18.6562V35.2805H58.6876V38.1699H47.0558C46.3353 38.1643 45.6313 38.3872 45.0438 38.807C44.4562 39.2268 44.0148 39.8222 43.7823 40.5088L41.1825 48.374C41.0581 48.8936 40.9762 49.4225 40.9378 49.9556V61.5132C40.939 62.7026 41.4089 63.843 42.2444 64.6841C43.0798 65.5251 44.2126 65.9982 45.3941 65.9994H72.8874C74.0689 65.9982 75.2017 65.5251 76.0372 64.6841C76.8727 63.843 77.3426 62.7026 77.3438 61.5132V52.6929ZM34.14 49.9556V61.5132C34.1392 62.0978 33.9082 62.6582 33.4976 63.0715C33.087 63.4849 32.5303 63.7174 31.9496 63.7183H4.45633C3.87564 63.7174 3.31897 63.4849 2.90837 63.0715C2.49776 62.6582 2.26673 62.0978 2.26593 61.5132V49.9556C2.26673 49.371 2.49776 48.8106 2.90837 48.3973C3.31897 47.9839 3.87564 47.7513 4.45633 47.7505H31.9496C32.5303 47.7513 33.087 47.9839 33.4976 48.3973C33.9082 48.8106 34.1392 49.371 34.14 49.9556ZM24.9252 25.5478C24.3445 25.5469 23.7879 25.3144 23.3773 24.901C22.9667 24.4877 22.7356 23.9273 22.7348 23.3427V11.7851C22.7356 11.2005 22.9667 10.6401 23.3773 10.2268C23.7879 9.8134 24.3445 9.58082 24.9252 9.58001H52.4185C52.9992 9.58082 53.5559 9.8134 53.9665 10.2268C54.3771 10.6401 54.6081 11.2005 54.6089 11.7851V23.3427C54.6081 23.9273 54.3771 24.4877 53.9665 24.901C53.5559 25.3144 52.9992 25.5469 52.4185 25.5478H24.9252ZM75.0778 61.5132C75.077 62.0978 74.846 62.6582 74.4354 63.0715C74.0248 63.4849 73.4681 63.7174 72.8874 63.7183H45.3941C44.8134 63.7174 44.2568 63.4849 43.8462 63.0715C43.4356 62.6582 43.2045 62.0978 43.2037 61.5132V49.9556C43.2045 49.371 43.4356 48.8106 43.8462 48.3973C44.2568 47.9839 44.8134 47.7513 45.3941 47.7505H72.8874C73.4681 47.7513 74.0248 47.9839 74.4354 48.3973C74.846 48.8106 75.077 49.371 75.0778 49.9556V61.5132Z" fill="black"/>
<path d="M47.6017 51.0322C47.3012 51.0322 47.0131 51.1524 46.8006 51.3663C46.5881 51.5802 46.4688 51.8703 46.4688 52.1728V61.2972C46.4688 61.5997 46.5881 61.8898 46.8006 62.1037C47.0131 62.3176 47.3012 62.4378 47.6017 62.4378H72.678C72.9785 62.4378 73.2667 62.3176 73.4791 62.1037C73.6916 61.8898 73.811 61.5997 73.811 61.2972V52.1728C73.811 51.8703 73.6916 51.5802 73.4791 51.3663C73.2667 51.1524 72.9785 51.0322 72.678 51.0322H47.6017ZM63.2366 53.3133V54.758C63.2366 55.0605 63.1173 55.3506 62.9048 55.5645C62.6923 55.7784 62.4041 55.8986 62.1037 55.8986C61.8032 55.8986 61.515 55.7784 61.3025 55.5645C61.0901 55.3506 60.9707 55.0605 60.9707 54.758V53.3133H63.2366ZM55.6835 53.3133V54.758C55.6835 55.0605 55.5642 55.3506 55.3517 55.5645C55.1392 55.7784 54.851 55.8986 54.5506 55.8986C54.2501 55.8986 53.9619 55.7784 53.7494 55.5645C53.537 55.3506 53.4176 55.0605 53.4176 54.758V53.3133H55.6835ZM71.545 60.1567H48.7347V53.3133H51.1517V54.758C51.1517 55.6655 51.5098 56.5358 52.1472 57.1775C52.7846 57.8192 53.6491 58.1797 54.5506 58.1797C55.452 58.1797 56.3165 57.8192 56.9539 57.1775C57.5914 56.5358 57.9495 55.6655 57.9495 54.758V53.3133H58.7048V54.758C58.7048 55.6655 59.0629 56.5358 59.7003 57.1775C60.3377 57.8192 61.2022 58.1797 62.1037 58.1797C63.0051 58.1797 63.8696 57.8192 64.507 57.1775C65.1445 56.5358 65.5026 55.6655 65.5026 54.758V53.3133H71.545V60.1567Z" fill="black"/>
<path d="M52.3422 22.1263V13.0019C52.3422 12.6994 52.2229 12.4093 52.0104 12.1954C51.7979 11.9815 51.5097 11.8613 51.2093 11.8613H26.133C25.8325 11.8613 25.5443 11.9815 25.3318 12.1954C25.1194 12.4093 25 12.6994 25 13.0019V22.1263C25 22.4288 25.1194 22.7189 25.3318 22.9328C25.5443 23.1467 25.8325 23.2669 26.133 23.2669H51.2093C51.5097 23.2669 51.7979 23.1467 52.0104 22.9328C52.2229 22.7189 52.3422 22.4288 52.3422 22.1263ZM41.7679 14.1424V15.5871C41.7679 15.8896 41.6485 16.1797 41.436 16.3936C41.2236 16.6075 40.9354 16.7277 40.6349 16.7277C40.3344 16.7277 40.0463 16.6075 39.8338 16.3936C39.6213 16.1797 39.502 15.8896 39.502 15.5871V14.1424H41.7679ZM34.2148 14.1424V15.5871C34.2148 15.8896 34.0954 16.1797 33.8829 16.3936C33.6705 16.6075 33.3823 16.7277 33.0818 16.7277C32.7813 16.7277 32.4932 16.6075 32.2807 16.3936C32.0682 16.1797 31.9489 15.8896 31.9489 15.5871V14.1424H34.2148ZM50.0763 20.9858H27.2659V14.1424H29.6829V15.5871C29.6829 16.4946 30.041 17.3649 30.6784 18.0066C31.3159 18.6483 32.1804 19.0088 33.0818 19.0088C33.9833 19.0088 34.8478 18.6483 35.4852 18.0066C36.1226 17.3649 36.4807 16.4946 36.4807 15.5871V14.1424H37.236V15.5871C37.236 16.4946 37.5941 17.3649 38.2315 18.0066C38.869 18.6483 39.7335 19.0088 40.6349 19.0088C41.5364 19.0088 42.4009 18.6483 43.0383 18.0066C43.6757 17.3649 44.0338 16.4946 44.0338 15.5871V14.1424H50.0763V20.9858Z" fill="black"/>
</g>
<defs>
<clipPath id="clip0">
<rect width="77.3438" height="66" fill="white"/>
</clipPath>
</defs>
</svg>
