<svg width="56" height="69" viewBox="0 0 56 69" fill="none" xmlns="http://www.w3.org/2000/svg">
<path d="M52.1622 4L3 65.1606L5.75482 66.7361C6.05717 66.909 6.39944 67 6.74774 67H52C53.1046 67 54 66.1046 54 65V7.74971C54 7.40191 53.9093 7.06012 53.7369 6.75808L52.1622 4Z" fill="black"/>
<path d="M3 65.1606L1.83088 64.2208C1.55588 64.5629 1.44453 65.0083 1.52618 65.4396C1.60783 65.8709 1.87429 66.2448 2.25531 66.4627L3 65.1606ZM52.1622 4L53.4648 3.25627C53.2187 2.82531 52.7755 2.54393 52.2808 2.5047C51.786 2.46546 51.304 2.67344 50.993 3.06024L52.1622 4ZM53.7369 6.75808L52.4342 7.5018V7.5018L53.7369 6.75808ZM5.75482 66.7361L6.49951 65.434L6.49951 65.434L5.75482 66.7361ZM4.16912 66.1003L53.3313 4.93976L50.993 3.06024L1.83088 64.2208L4.16912 66.1003ZM50.8595 4.74373L52.4342 7.5018L55.0395 6.01435L53.4648 3.25627L50.8595 4.74373ZM52.5 7.74971V65H55.5V7.74971H52.5ZM52 65.5H6.74774V68.5H52V65.5ZM6.49951 65.434L3.74469 63.8585L2.25531 66.4627L5.01013 68.0382L6.49951 65.434ZM6.74774 65.5C6.66066 65.5 6.5751 65.4773 6.49951 65.434L5.01013 68.0382C5.53924 68.3408 6.13821 68.5 6.74774 68.5V65.5ZM52.5 65C52.5 65.2761 52.2761 65.5 52 65.5V68.5C53.933 68.5 55.5 66.933 55.5 65H52.5ZM52.4342 7.5018C52.4773 7.57732 52.5 7.66277 52.5 7.74971H55.5C55.5 7.14105 55.3413 6.54292 55.0395 6.01435L52.4342 7.5018Z" fill="black"/>
<path d="M17.4545 2L2 16.8235V63C2 64.1046 2.89543 65 4 65H50C51.1046 65 52 64.1046 52 63V4C52 2.89543 51.1046 2 50 2H17.4545Z" fill="white" stroke="black" stroke-width="3"/>
<path d="M9.39944 36.9031C8.63864 36.5414 8.63863 35.4586 9.39943 35.0969L18.8206 30.6175C19.4842 30.302 20.25 30.7858 20.25 31.5206L20.25 40.4794C20.25 41.2142 19.4842 41.698 18.8206 41.3825L9.39944 36.9031Z" fill="black"/>
<circle cx="39.5" cy="18.5" r="6.5" stroke="black" stroke-width="2"/>
<rect x="30" y="50" width="16" height="7" rx="1" stroke="black" stroke-width="2"/>
<line x1="40" y1="25" x2="40" y2="49" stroke="black" stroke-width="2"/>
<line x1="17" y1="36" x2="41" y2="36" stroke="black" stroke-width="2"/>
<circle cx="40" cy="36" r="3" fill="black"/>
<path d="M1 18H17C17.5523 18 18 17.5523 18 17V1" stroke="black" stroke-width="2"/>
</svg>
