<svg width="56" height="69" viewBox="0 0 56 69" fill="none" xmlns="http://www.w3.org/2000/svg">
<path fill-rule="evenodd" clip-rule="evenodd" d="M53.4648 3.25628C53.2188 2.82532 52.7755 2.54394 52.2808 2.50471C51.7861 2.46547 51.304 2.67345 50.9931 3.06025L1.83089 64.2208C1.55589 64.5629 1.44454 65.0083 1.52619 65.4396C1.60784 65.8709 1.8743 66.2448 2.25532 66.4627L5.01014 68.0382C5.53925 68.3408 6.13822 68.5 6.74775 68.5H52C53.933 68.5 55.5 66.933 55.5 65V7.74972C55.5 7.14106 55.3413 6.54293 55.0395 6.01436L53.4648 3.25628Z" fill="black"/>
<path d="M17.4545 2L2 16.8235V63C2 64.1046 2.89543 65 4 65H50C51.1046 65 52 64.1046 52 63V4C52 2.89543 51.1046 2 50 2H17.4545Z" fill="white"/>
<path fill-rule="evenodd" clip-rule="evenodd" d="M16.8515 0.5H50C51.933 0.5 53.5 2.067 53.5 4V63C53.5 64.933 51.933 66.5 50 66.5H4C2.06701 66.5 0.5 64.933 0.5 63V16.1838L16.8515 0.5ZM3.98296 17H17V4.51445L3.98296 17ZM19 3.5V17C19 18.1046 18.1046 19 17 19H3.5V63C3.5 63.2761 3.72386 63.5 4 63.5H50C50.2761 63.5 50.5 63.2761 50.5 63V4C50.5 3.72386 50.2761 3.5 50 3.5H19ZM45 18.5C45 21.5376 42.5376 24 39.5 24C36.4624 24 34 21.5376 34 18.5C34 15.4624 36.4624 13 39.5 13C42.5376 13 45 15.4624 45 18.5ZM41 25.85C44.4234 25.1551 47 22.1284 47 18.5C47 14.3579 43.6421 11 39.5 11C35.3579 11 32 14.3579 32 18.5C32 22.4741 35.091 25.7263 39 25.9836V33.1707C38.1476 33.472 37.472 34.1476 37.1707 35H20.25V31.5206C20.25 30.7859 19.4842 30.302 18.8206 30.6175L9.39946 35.0969C8.63866 35.4587 8.63866 36.5414 9.39946 36.9032L18.8206 41.3826C19.4842 41.6981 20.25 41.2142 20.25 40.4795V37H37.1707C37.472 37.8524 38.1476 38.528 39 38.8293L39 49H31C29.8954 49 29 49.8954 29 51V56C29 57.1046 29.8954 58 31 58H45C46.1046 58 47 57.1046 47 56V51C47 49.8954 46.1046 49 45 49H41V38.8293C42.1652 38.4175 43 37.3062 43 36C43 34.6938 42.1652 33.5825 41 33.1707V25.85ZM45 51H31V56H45V51Z" fill="black"/>
</svg>
